M48
INCH,TZ
T1C0.0157
T2C0.0315
T3C0.0320
T4C0.0354
T5C0.0394
T6C0.0472
T7C0.0984
T8C0.1260
%
G90
G05
T1
X13750Y-15750
X15750Y-12250
X16714Y-42343
X17400Y-19000
X17800Y-20200
X18214Y-37843
X21000Y-36250
X21000Y-47750
X21432Y-42169
X21750Y-45250
X22269Y-36343
X22750Y-49000
X24000Y-16800
X25229Y-40069
X25714Y-35343
X26500Y-40500
X27250Y-17000
X27250Y-28250
X28000Y-15500
X28000Y-28500
X28500Y-22750
X28500Y-14103
X28750Y-41250
X29214Y-48843
X29228Y-21843
X29400Y-14600
X29714Y-22843
X29714Y-38843
X30214Y-18343
X30714Y-36343
X31701Y-42355
X31714Y-15843
X31714Y-16843
X31942Y-18986
X32214Y-15343
X32214Y-21343
X32214Y-22343
X32214Y-26343
X32214Y-31343
X32214Y-32843
X32500Y-49750
X32714Y-19843
X33214Y-33343
X34750Y-48250
X34785Y-45343
X34962Y-38337
X34962Y-43843
X35214Y-42843
X35214Y-43343
X35574Y-50065
X35714Y-25343
X35714Y-28343
X35714Y-31343
X35714Y-34843
X35714Y-39343
X35714Y-46343
X36214Y-13338
X36214Y-19073
X36214Y-20343
X36214Y-26343
X36428Y-23843
X36698Y-30858
X37214Y-36343
X37428Y-38343
X38214Y-21343
X38214Y-22343
X38214Y-43843
X38530Y-32343
X39214Y-27843
X39214Y-38843
X39714Y-26343
X40214Y-34343
X40714Y-22343
X41400Y-13800
X41714Y-25343
X41714Y-27343
X41714Y-40343
X42000Y-45250
X42163Y-29343
X42714Y-36843
X43214Y-36343
X43265Y-27343
X43279Y-35535
X43714Y-24843
X43714Y-25343
X43714Y-30343
X44074Y-30843
X45214Y-36343
X45214Y-36843
X45214Y-40843
X45714Y-35843
X45714Y-41343
X46714Y-22343
X46991Y-35535
X47214Y-14343
X47214Y-17843
X47214Y-21843
X47214Y-22843
X47714Y-13343
X47714Y-15843
X47714Y-21843
X47714Y-28343
X47714Y-28843
X48163Y-26343
X48184Y-27843
X48214Y-37343
X48214Y-41843
X48250Y-35000
X49214Y-21843
X49265Y-24343
X49265Y-27343
X49265Y-29343
X49714Y-16343
X49714Y-23843
X49714Y-28343
X50214Y-17843
X50214Y-22843
X50214Y-23843
X50714Y-27843
X50714Y-40343
X51214Y-30343
X51714Y-40843
X52214Y-30343
X52214Y-41343
X53714Y-34343
X54214Y-20843
X54214Y-26343
X54214Y-29843
X54714Y-29343
X55214Y-21843
X55714Y-12843
X56714Y-26343
X57714Y-36343
X58714Y-37343
X59464Y-37593
X59714Y-30843
X59714Y-33343
X59964Y-25593
X60214Y-26343
X60214Y-30343
X60678Y-30936
X60714Y-32343
X60714Y-32843
X60714Y-37843
X61214Y-21843
X61714Y-30343
X62214Y-30343
X62214Y-41843
X62807Y-29215
X63214Y-39843
X73214Y-37843
T2
X15286Y-43931
X15286Y-45900
X16290Y-18248
X16290Y-19248
X16290Y-20248
X16290Y-21248
X16290Y-22248
X16290Y-23248
X16290Y-24248
X16290Y-34411
X16290Y-35411
X16290Y-36411
X16290Y-37411
X16290Y-38411
X16290Y-39411
X16290Y-40411
X16290Y-41411
X16292Y-28248
X16292Y-32248
X16786Y-43931
X16786Y-45900
X17977Y-28248
X17977Y-32248
X18302Y-43947
X18302Y-45915
X19290Y-18248
X19290Y-19248
X19290Y-20248
X19290Y-21248
X19290Y-22248
X19290Y-23248
X19290Y-24248
X19290Y-34411
X19290Y-35411
X19290Y-36411
X19290Y-37411
X19290Y-38411
X19290Y-39411
X19290Y-40411
X19290Y-41411
X19714Y-28248
X19714Y-32248
X19714Y-49343
X19714Y-52343
X19786Y-43931
X19786Y-45900
X20750Y-18000
X20750Y-22000
X20750Y-23266
X20750Y-25234
X21718Y-34341
X21718Y-35341
X21718Y-36341
X21718Y-37341
X21718Y-38341
X21718Y-39341
X21718Y-40341
X22250Y-18000
X22250Y-22000
X22250Y-23266
X22250Y-25234
X23294Y-43858
X23294Y-45827
X23750Y-18000
X23750Y-22000
X23750Y-23266
X23750Y-25234
X24718Y-34341
X24718Y-35341
X24718Y-36341
X24718Y-37341
X24718Y-38341
X24718Y-39341
X24718Y-40341
X24794Y-43858
X24794Y-45827
X25714Y-49343
X25714Y-52343
X26294Y-43858
X26294Y-45827
X30712Y-38337
X30712Y-39337
X30712Y-40337
X30712Y-41337
X30712Y-42337
X30712Y-43337
X30712Y-44337
X30712Y-45337
X30712Y-46337
X30712Y-47337
X30712Y-48337
X30712Y-49337
X30712Y-50337
X30712Y-51337
X31214Y-13344
X31214Y-14344
X31214Y-15344
X31214Y-16344
X31214Y-17344
X31214Y-18344
X31214Y-19344
X31214Y-20344
X31214Y-21344
X31214Y-22344
X31214Y-23344
X31214Y-24344
X31214Y-25344
X31214Y-26344
X31214Y-27344
X31214Y-28344
X31214Y-29344
X31214Y-30344
X31214Y-31344
X31214Y-32344
X36712Y-38337
X36712Y-39337
X36712Y-40337
X36712Y-41337
X36712Y-42337
X36712Y-43337
X36712Y-44337
X36712Y-45337
X36712Y-46337
X36712Y-47337
X36712Y-48337
X36712Y-49337
X36712Y-50337
X36712Y-51337
X37214Y-13344
X37214Y-14344
X37214Y-15344
X37214Y-16344
X37214Y-17344
X37214Y-18344
X37214Y-19344
X37214Y-20344
X37214Y-21344
X37214Y-22344
X37214Y-23344
X37214Y-24344
X37214Y-25344
X37214Y-26344
X37214Y-27344
X37214Y-28344
X37214Y-29344
X37214Y-30344
X37214Y-31344
X37214Y-32344
X39462Y-43274
X39462Y-47274
X39962Y-39309
X39962Y-41238
X40962Y-43274
X40962Y-45242
X41708Y-38813
X42708Y-38813
X42714Y-13343
X42714Y-14343
X42714Y-15343
X42714Y-16343
X42714Y-17343
X42714Y-18343
X42714Y-19343
X42714Y-20343
X42714Y-21343
X42714Y-22343
X42714Y-23343
X42714Y-24343
X42714Y-25343
X42714Y-26343
X42714Y-27343
X42714Y-28343
X42714Y-29343
X42714Y-30343
X42714Y-31343
X42714Y-32343
X43708Y-38813
X48714Y-13343
X48714Y-14343
X48714Y-15343
X48714Y-16343
X48714Y-17343
X48714Y-18343
X48714Y-19343
X48714Y-20343
X48714Y-21343
X48714Y-22343
X48714Y-23343
X48714Y-24343
X48714Y-25343
X48714Y-26343
X48714Y-27343
X48714Y-28343
X48714Y-29343
X48714Y-30343
X48714Y-31343
X48714Y-32343
X69111Y-16506
X69111Y-17506
X69111Y-18506
X69111Y-19506
X69111Y-20506
X69111Y-21506
X69111Y-22506
X69111Y-23506
X69111Y-24506
X69111Y-25506
X69111Y-26506
X69111Y-27506
X69111Y-28506
X69111Y-29506
X75111Y-16506
X75111Y-17506
X75111Y-18506
X75111Y-19506
X75111Y-20506
X75111Y-21506
X75111Y-22506
X75111Y-23506
X75111Y-24506
X75111Y-25506
X75111Y-26506
X75111Y-27506
X75111Y-28506
X75111Y-29506
T3
X17800Y-12000
X17800Y-15000
X19800Y-12000
X19800Y-15000
T4
X13000Y-11742
X13000Y-12742
X13000Y-14996
X13000Y-15996
X22542Y-12002
X22542Y-13002
X23714Y-28343
X23714Y-32343
X25477Y-28343
X25477Y-32343
T5
X20815Y-8358
X21360Y-7240
X21906Y-8358
X22451Y-7240
X22996Y-8358
X23541Y-7240
X24087Y-8358
X24632Y-7240
X25177Y-8358
X43000Y-43994
X43000Y-44994
X43000Y-45994
X43000Y-46994
X43000Y-47994
X43000Y-48994
X43000Y-49994
X43000Y-50994
X56000Y-16500
X56000Y-17500
X56000Y-18500
X56000Y-19500
X56000Y-20500
X56000Y-21500
X56000Y-22500
X56000Y-23500
X56000Y-24500
X56000Y-25500
X56000Y-26500
X56000Y-27500
X56000Y-28500
X56000Y-29500
X62000Y-16500
X62000Y-17500
X62000Y-18500
X62000Y-19500
X62000Y-20500
X62000Y-21500
X62000Y-22500
X62000Y-23500
X62000Y-24500
X62000Y-25500
X62000Y-26500
X62000Y-27500
X62000Y-28500
X62000Y-29500
T6
X48115Y-38796
X49115Y-38796
X50115Y-38796
X51115Y-38796
X52115Y-38796
X53115Y-38796
X54115Y-38796
X55115Y-38796
X56115Y-38796
X57115Y-38796
X58115Y-38796
X59115Y-38796
X60115Y-38796
X61115Y-38796
X62115Y-38796
X63115Y-38796
T7
X45950Y-38796
X45950Y-51001
X75477Y-51001
X75477Y-38796
T8
X18075Y-7799
X27917Y-7799
T5
G00X11277Y-8175
M15
G01X11277Y-8963
M16
G05
G00X13521Y-7388
M15
G01X12733Y-7388
M16
G05
G00X13521Y-9750
M15
G01X12733Y-9750
M16
G05
T0
M30
