G04 #@! TF.GenerationSoftware,KiCad,Pcbnew,(6.0.10-0)*
G04 #@! TF.CreationDate,2024-07-27T08:04:34-04:00*
G04 #@! TF.ProjectId,6502_wozmon,36353032-5f77-46f7-9a6d-6f6e2e6b6963,rev?*
G04 #@! TF.SameCoordinates,Original*
G04 #@! TF.FileFunction,Copper,L1,Top*
G04 #@! TF.FilePolarity,Positive*
%FSLAX46Y46*%
G04 Gerber Fmt 4.6, Leading zero omitted, Abs format (unit mm)*
G04 Created by KiCad (PCBNEW (6.0.10-0)) date 2024-07-27 08:04:34*
%MOMM*%
%LPD*%
G01*
G04 APERTURE LIST*
G04 Aperture macros list*
%AMRoundRect*
0 Rectangle with rounded corners*
0 $1 Rounding radius*
0 $2 $3 $4 $5 $6 $7 $8 $9 X,Y pos of 4 corners*
0 Add a 4 corners polygon primitive as box body*
4,1,4,$2,$3,$4,$5,$6,$7,$8,$9,$2,$3,0*
0 Add four circle primitives for the rounded corners*
1,1,$1+$1,$2,$3*
1,1,$1+$1,$4,$5*
1,1,$1+$1,$6,$7*
1,1,$1+$1,$8,$9*
0 Add four rect primitives between the rounded corners*
20,1,$1+$1,$2,$3,$4,$5,0*
20,1,$1+$1,$4,$5,$6,$7,0*
20,1,$1+$1,$6,$7,$8,$9,0*
20,1,$1+$1,$8,$9,$2,$3,0*%
G04 Aperture macros list end*
G04 #@! TA.AperFunction,ComponentPad*
%ADD10C,1.600000*%
G04 #@! TD*
G04 #@! TA.AperFunction,ComponentPad*
%ADD11R,1.600000X1.600000*%
G04 #@! TD*
G04 #@! TA.AperFunction,ComponentPad*
%ADD12O,1.600000X1.600000*%
G04 #@! TD*
G04 #@! TA.AperFunction,ComponentPad*
%ADD13C,3.000000*%
G04 #@! TD*
G04 #@! TA.AperFunction,ComponentPad*
%ADD14R,1.800000X2.600000*%
G04 #@! TD*
G04 #@! TA.AperFunction,ComponentPad*
%ADD15O,1.800000X2.600000*%
G04 #@! TD*
G04 #@! TA.AperFunction,ComponentPad*
%ADD16C,4.000000*%
G04 #@! TD*
G04 #@! TA.AperFunction,ComponentPad*
%ADD17R,1.800000X1.800000*%
G04 #@! TD*
G04 #@! TA.AperFunction,ComponentPad*
%ADD18O,1.800000X1.800000*%
G04 #@! TD*
G04 #@! TA.AperFunction,ComponentPad*
%ADD19R,3.500000X3.500000*%
G04 #@! TD*
G04 #@! TA.AperFunction,ComponentPad*
%ADD20RoundRect,0.750000X-1.000000X0.750000X-1.000000X-0.750000X1.000000X-0.750000X1.000000X0.750000X0*%
G04 #@! TD*
G04 #@! TA.AperFunction,ComponentPad*
%ADD21RoundRect,0.875000X-0.875000X0.875000X-0.875000X-0.875000X0.875000X-0.875000X0.875000X0.875000X0*%
G04 #@! TD*
G04 #@! TA.AperFunction,ComponentPad*
%ADD22C,1.800000*%
G04 #@! TD*
G04 #@! TA.AperFunction,ComponentPad*
%ADD23C,1.500000*%
G04 #@! TD*
G04 #@! TA.AperFunction,ComponentPad*
%ADD24C,1.397000*%
G04 #@! TD*
G04 #@! TA.AperFunction,ComponentPad*
%ADD25R,1.700000X1.700000*%
G04 #@! TD*
G04 #@! TA.AperFunction,ComponentPad*
%ADD26O,1.700000X1.700000*%
G04 #@! TD*
G04 #@! TA.AperFunction,ComponentPad*
%ADD27R,2.000000X1.440000*%
G04 #@! TD*
G04 #@! TA.AperFunction,ComponentPad*
%ADD28O,2.000000X1.440000*%
G04 #@! TD*
G04 #@! TA.AperFunction,ComponentPad*
%ADD29C,1.440000*%
G04 #@! TD*
G04 #@! TA.AperFunction,ViaPad*
%ADD30C,0.800000*%
G04 #@! TD*
G04 #@! TA.AperFunction,Conductor*
%ADD31C,0.250000*%
G04 #@! TD*
G04 APERTURE END LIST*
D10*
G04 #@! TO.P,C9,1*
G04 #@! TO.N,Net-(C9-Pad1)*
X50257500Y-111585000D03*
G04 #@! TO.P,C9,2*
G04 #@! TO.N,GND*
X50257500Y-116585000D03*
G04 #@! TD*
D11*
G04 #@! TO.P,U3,1,A14*
G04 #@! TO.N,A14*
X175541666Y-41925000D03*
D12*
G04 #@! TO.P,U3,2,A12*
G04 #@! TO.N,A12*
X175541666Y-44465000D03*
G04 #@! TO.P,U3,3,A7*
G04 #@! TO.N,A7*
X175541666Y-47005000D03*
G04 #@! TO.P,U3,4,A6*
G04 #@! TO.N,A6*
X175541666Y-49545000D03*
G04 #@! TO.P,U3,5,A5*
G04 #@! TO.N,A5*
X175541666Y-52085000D03*
G04 #@! TO.P,U3,6,A4*
G04 #@! TO.N,A4*
X175541666Y-54625000D03*
G04 #@! TO.P,U3,7,A3*
G04 #@! TO.N,A3*
X175541666Y-57165000D03*
G04 #@! TO.P,U3,8,A2*
G04 #@! TO.N,A2*
X175541666Y-59705000D03*
G04 #@! TO.P,U3,9,A1*
G04 #@! TO.N,A1*
X175541666Y-62245000D03*
G04 #@! TO.P,U3,10,A0*
G04 #@! TO.N,A0*
X175541666Y-64785000D03*
G04 #@! TO.P,U3,11,D0*
G04 #@! TO.N,D0*
X175541666Y-67325000D03*
G04 #@! TO.P,U3,12,D1*
G04 #@! TO.N,D1*
X175541666Y-69865000D03*
G04 #@! TO.P,U3,13,D2*
G04 #@! TO.N,D2*
X175541666Y-72405000D03*
G04 #@! TO.P,U3,14,GND*
G04 #@! TO.N,GND*
X175541666Y-74945000D03*
G04 #@! TO.P,U3,15,D3*
G04 #@! TO.N,D3*
X190781666Y-74945000D03*
G04 #@! TO.P,U3,16,D4*
G04 #@! TO.N,D4*
X190781666Y-72405000D03*
G04 #@! TO.P,U3,17,D5*
G04 #@! TO.N,D5*
X190781666Y-69865000D03*
G04 #@! TO.P,U3,18,D6*
G04 #@! TO.N,D6*
X190781666Y-67325000D03*
G04 #@! TO.P,U3,19,D7*
G04 #@! TO.N,D7*
X190781666Y-64785000D03*
G04 #@! TO.P,U3,20,~{CS}*
G04 #@! TO.N,A15\u002A*
X190781666Y-62245000D03*
G04 #@! TO.P,U3,21,A10*
G04 #@! TO.N,A10*
X190781666Y-59705000D03*
G04 #@! TO.P,U3,22,~{OE}*
G04 #@! TO.N,GND*
X190781666Y-57165000D03*
G04 #@! TO.P,U3,23,A11*
G04 #@! TO.N,A11*
X190781666Y-54625000D03*
G04 #@! TO.P,U3,24,A9*
G04 #@! TO.N,A9*
X190781666Y-52085000D03*
G04 #@! TO.P,U3,25,A8*
G04 #@! TO.N,A8*
X190781666Y-49545000D03*
G04 #@! TO.P,U3,26,A13*
G04 #@! TO.N,A13*
X190781666Y-47005000D03*
G04 #@! TO.P,U3,27,~{WE}*
G04 #@! TO.N,VCC*
X190781666Y-44465000D03*
G04 #@! TO.P,U3,28,VCC*
X190781666Y-41925000D03*
G04 #@! TD*
D10*
G04 #@! TO.P,C6,1*
G04 #@! TO.N,Net-(C6-Pad1)*
X38827500Y-111585000D03*
G04 #@! TO.P,C6,2*
G04 #@! TO.N,Net-(C6-Pad2)*
X38827500Y-116585000D03*
G04 #@! TD*
D13*
G04 #@! TO.P,U8,*
G04 #@! TO.N,*
X191712500Y-98542500D03*
X191711980Y-129543200D03*
X116713400Y-129543200D03*
X116713400Y-98542500D03*
D14*
G04 #@! TO.P,U8,1,VSS*
G04 #@! TO.N,GND*
X122212500Y-98542500D03*
D15*
G04 #@! TO.P,U8,2,VDD*
G04 #@! TO.N,VCC*
X124752500Y-98542500D03*
G04 #@! TO.P,U8,3,VO*
G04 #@! TO.N,Net-(RV1-Pad2)*
X127292500Y-98542500D03*
G04 #@! TO.P,U8,4,RS*
G04 #@! TO.N,Net-(U7-Pad14)*
X129832500Y-98542500D03*
G04 #@! TO.P,U8,5,R/W*
G04 #@! TO.N,Net-(U7-Pad15)*
X132372500Y-98542500D03*
G04 #@! TO.P,U8,6,E*
G04 #@! TO.N,Net-(U7-Pad16)*
X134912500Y-98542500D03*
G04 #@! TO.P,U8,7,D0*
G04 #@! TO.N,unconnected-(U8-Pad7)*
X137452500Y-98542500D03*
G04 #@! TO.P,U8,8,D1*
G04 #@! TO.N,unconnected-(U8-Pad8)*
X139992500Y-98542500D03*
G04 #@! TO.P,U8,9,D2*
G04 #@! TO.N,unconnected-(U8-Pad9)*
X142532500Y-98542500D03*
G04 #@! TO.P,U8,10,D3*
G04 #@! TO.N,unconnected-(U8-Pad10)*
X145072500Y-98542500D03*
G04 #@! TO.P,U8,11,D4*
G04 #@! TO.N,Net-(U7-Pad10)*
X147612500Y-98542500D03*
G04 #@! TO.P,U8,12,D5*
G04 #@! TO.N,Net-(U7-Pad11)*
X150152500Y-98542500D03*
G04 #@! TO.P,U8,13,D6*
G04 #@! TO.N,Net-(U7-Pad12)*
X152692500Y-98542500D03*
G04 #@! TO.P,U8,14,D7*
G04 #@! TO.N,Net-(U7-Pad13)*
X155232500Y-98542500D03*
G04 #@! TO.P,U8,15,LED(+)*
G04 #@! TO.N,VCC*
X157772500Y-98542500D03*
G04 #@! TO.P,U8,16,LED(-)*
G04 #@! TO.N,GND*
X160312500Y-98542500D03*
G04 #@! TD*
D16*
G04 #@! TO.P,J2,0*
G04 #@! TO.N,N/C*
X70910000Y-19810331D03*
X45910000Y-19810331D03*
D11*
G04 #@! TO.P,J2,1,1*
G04 #@! TO.N,unconnected-(J2-Pad1)*
X52870000Y-21230331D03*
D10*
G04 #@! TO.P,J2,2,2*
G04 #@! TO.N,RXD*
X55640000Y-21230331D03*
G04 #@! TO.P,J2,3,3*
G04 #@! TO.N,TXD*
X58410000Y-21230331D03*
G04 #@! TO.P,J2,4,4*
G04 #@! TO.N,unconnected-(J2-Pad4)*
X61180000Y-21230331D03*
G04 #@! TO.P,J2,5,5*
G04 #@! TO.N,GND*
X63950000Y-21230331D03*
G04 #@! TO.P,J2,6,6*
G04 #@! TO.N,unconnected-(J2-Pad6)*
X54255000Y-18390331D03*
G04 #@! TO.P,J2,7,7*
G04 #@! TO.N,unconnected-(J2-Pad7)*
X57025000Y-18390331D03*
G04 #@! TO.P,J2,8,8*
G04 #@! TO.N,unconnected-(J2-Pad8)*
X59795000Y-18390331D03*
G04 #@! TO.P,J2,9,9*
G04 #@! TO.N,unconnected-(J2-Pad9)*
X62565000Y-18390331D03*
G04 #@! TD*
D17*
G04 #@! TO.P,D1,1,K*
G04 #@! TO.N,Net-(D1-Pad1)*
X60232500Y-82150000D03*
D18*
G04 #@! TO.P,D1,2,A*
G04 #@! TO.N,IRQ\u002A*
X60232500Y-71990000D03*
G04 #@! TD*
D10*
G04 #@! TO.P,C10,1*
G04 #@! TO.N,VCC*
X56515000Y-59095000D03*
G04 #@! TO.P,C10,2*
G04 #@! TO.N,GND*
X56515000Y-64095000D03*
G04 #@! TD*
G04 #@! TO.P,C8,1*
G04 #@! TO.N,GND*
X46487500Y-116625000D03*
G04 #@! TO.P,C8,2*
G04 #@! TO.N,Net-(C8-Pad2)*
X46487500Y-111625000D03*
G04 #@! TD*
D19*
G04 #@! TO.P,J1,1*
G04 #@! TO.N,VCC*
X33342500Y-24765000D03*
D20*
G04 #@! TO.P,J1,2*
G04 #@! TO.N,unconnected-(J1-Pad2)*
X33342500Y-18765000D03*
D21*
G04 #@! TO.P,J1,3*
G04 #@! TO.N,GND*
X28642500Y-21765000D03*
G04 #@! TD*
D17*
G04 #@! TO.P,D3,1,K*
G04 #@! TO.N,GND*
X57257110Y-33025000D03*
D22*
G04 #@! TO.P,D3,2,A*
G04 #@! TO.N,Net-(D3-Pad2)*
X57257110Y-30485000D03*
G04 #@! TD*
D11*
G04 #@! TO.P,U4,1,VSS*
G04 #@! TO.N,GND*
X78007500Y-97375000D03*
D12*
G04 #@! TO.P,U4,2,CS1*
G04 #@! TO.N,A12*
X78007500Y-99915000D03*
G04 #@! TO.P,U4,3,~{CS2}*
G04 #@! TO.N,Net-(U1-Pad8)*
X78007500Y-102455000D03*
G04 #@! TO.P,U4,4,~{RES}*
G04 #@! TO.N,RESET\u002A*
X78007500Y-104995000D03*
G04 #@! TO.P,U4,5,RxC*
G04 #@! TO.N,unconnected-(U4-Pad5)*
X78007500Y-107535000D03*
G04 #@! TO.P,U4,6,XTAL1*
G04 #@! TO.N,Net-(C5-Pad1)*
X78007500Y-110075000D03*
G04 #@! TO.P,U4,7,XTAL2*
G04 #@! TO.N,XTAL*
X78007500Y-112615000D03*
G04 #@! TO.P,U4,8,~{RTS}*
G04 #@! TO.N,unconnected-(U4-Pad8)*
X78007500Y-115155000D03*
G04 #@! TO.P,U4,9,~{CTS}*
G04 #@! TO.N,unconnected-(U4-Pad9)*
X78007500Y-117695000D03*
G04 #@! TO.P,U4,10,TxD*
G04 #@! TO.N,Net-(U4-Pad10)*
X78007500Y-120235000D03*
G04 #@! TO.P,U4,11,~{DTR}*
G04 #@! TO.N,unconnected-(U4-Pad11)*
X78007500Y-122775000D03*
G04 #@! TO.P,U4,12,RxD*
G04 #@! TO.N,MAX232_12*
X78007500Y-125315000D03*
G04 #@! TO.P,U4,13,RS0*
G04 #@! TO.N,A0*
X78007500Y-127855000D03*
G04 #@! TO.P,U4,14,RS1*
G04 #@! TO.N,A1*
X78007500Y-130395000D03*
G04 #@! TO.P,U4,15,VCC*
G04 #@! TO.N,VCC*
X93247500Y-130395000D03*
G04 #@! TO.P,U4,16,~{DCD}*
G04 #@! TO.N,unconnected-(U4-Pad16)*
X93247500Y-127855000D03*
G04 #@! TO.P,U4,17,~{DSR}*
G04 #@! TO.N,unconnected-(U4-Pad17)*
X93247500Y-125315000D03*
G04 #@! TO.P,U4,18,D0*
G04 #@! TO.N,D0*
X93247500Y-122775000D03*
G04 #@! TO.P,U4,19,D1*
G04 #@! TO.N,D1*
X93247500Y-120235000D03*
G04 #@! TO.P,U4,20,D2*
G04 #@! TO.N,D2*
X93247500Y-117695000D03*
G04 #@! TO.P,U4,21,D3*
G04 #@! TO.N,D3*
X93247500Y-115155000D03*
G04 #@! TO.P,U4,22,D4*
G04 #@! TO.N,D4*
X93247500Y-112615000D03*
G04 #@! TO.P,U4,23,D5*
G04 #@! TO.N,D5*
X93247500Y-110075000D03*
G04 #@! TO.P,U4,24,D6*
G04 #@! TO.N,D6*
X93247500Y-107535000D03*
G04 #@! TO.P,U4,25,D7*
G04 #@! TO.N,D7*
X93247500Y-104995000D03*
G04 #@! TO.P,U4,26,~{IRQ}*
G04 #@! TO.N,Net-(D1-Pad1)*
X93247500Y-102455000D03*
G04 #@! TO.P,U4,27,\u03D52*
G04 #@! TO.N,CLK*
X93247500Y-99915000D03*
G04 #@! TO.P,U4,28,R/~{W}*
G04 #@! TO.N,RW\u002A*
X93247500Y-97375000D03*
G04 #@! TD*
D10*
G04 #@! TO.P,R3,1*
G04 #@! TO.N,VCC*
X50072500Y-81910000D03*
D12*
G04 #@! TO.P,R3,2*
G04 #@! TO.N,Net-(R3-Pad2)*
X50072500Y-71750000D03*
G04 #@! TD*
D11*
G04 #@! TO.P,U2,1,~{VP}*
G04 #@! TO.N,unconnected-(U2-Pad1)*
X79282500Y-33895000D03*
D12*
G04 #@! TO.P,U2,2,RDY*
G04 #@! TO.N,Net-(R3-Pad2)*
X79282500Y-36435000D03*
G04 #@! TO.P,U2,3,\u03D51*
G04 #@! TO.N,unconnected-(U2-Pad3)*
X79282500Y-38975000D03*
G04 #@! TO.P,U2,4,~{IRQ}*
G04 #@! TO.N,IRQ\u002A*
X79282500Y-41515000D03*
G04 #@! TO.P,U2,5,~{ML}*
G04 #@! TO.N,unconnected-(U2-Pad5)*
X79282500Y-44055000D03*
G04 #@! TO.P,U2,6,~{NMI}*
G04 #@! TO.N,VCC*
X79282500Y-46595000D03*
G04 #@! TO.P,U2,7,SYNC*
G04 #@! TO.N,unconnected-(U2-Pad7)*
X79282500Y-49135000D03*
G04 #@! TO.P,U2,8,VDD*
G04 #@! TO.N,VCC*
X79282500Y-51675000D03*
G04 #@! TO.P,U2,9,A0*
G04 #@! TO.N,A0*
X79282500Y-54215000D03*
G04 #@! TO.P,U2,10,A1*
G04 #@! TO.N,A1*
X79282500Y-56755000D03*
G04 #@! TO.P,U2,11,A2*
G04 #@! TO.N,A2*
X79282500Y-59295000D03*
G04 #@! TO.P,U2,12,A3*
G04 #@! TO.N,A3*
X79282500Y-61835000D03*
G04 #@! TO.P,U2,13,A4*
G04 #@! TO.N,A4*
X79282500Y-64375000D03*
G04 #@! TO.P,U2,14,A5*
G04 #@! TO.N,A5*
X79282500Y-66915000D03*
G04 #@! TO.P,U2,15,A6*
G04 #@! TO.N,A6*
X79282500Y-69455000D03*
G04 #@! TO.P,U2,16,A7*
G04 #@! TO.N,A7*
X79282500Y-71995000D03*
G04 #@! TO.P,U2,17,A8*
G04 #@! TO.N,A8*
X79282500Y-74535000D03*
G04 #@! TO.P,U2,18,A9*
G04 #@! TO.N,A9*
X79282500Y-77075000D03*
G04 #@! TO.P,U2,19,A10*
G04 #@! TO.N,A10*
X79282500Y-79615000D03*
G04 #@! TO.P,U2,20,A11*
G04 #@! TO.N,A11*
X79282500Y-82155000D03*
G04 #@! TO.P,U2,21,VSS*
G04 #@! TO.N,GND*
X94522500Y-82155000D03*
G04 #@! TO.P,U2,22,A12*
G04 #@! TO.N,A12*
X94522500Y-79615000D03*
G04 #@! TO.P,U2,23,A13*
G04 #@! TO.N,A13*
X94522500Y-77075000D03*
G04 #@! TO.P,U2,24,A14*
G04 #@! TO.N,A14*
X94522500Y-74535000D03*
G04 #@! TO.P,U2,25,A15*
G04 #@! TO.N,A15*
X94522500Y-71995000D03*
G04 #@! TO.P,U2,26,D7*
G04 #@! TO.N,D7*
X94522500Y-69455000D03*
G04 #@! TO.P,U2,27,D6*
G04 #@! TO.N,D6*
X94522500Y-66915000D03*
G04 #@! TO.P,U2,28,D5*
G04 #@! TO.N,D5*
X94522500Y-64375000D03*
G04 #@! TO.P,U2,29,D4*
G04 #@! TO.N,D4*
X94522500Y-61835000D03*
G04 #@! TO.P,U2,30,D3*
G04 #@! TO.N,D3*
X94522500Y-59295000D03*
G04 #@! TO.P,U2,31,D2*
G04 #@! TO.N,D2*
X94522500Y-56755000D03*
G04 #@! TO.P,U2,32,D1*
G04 #@! TO.N,D1*
X94522500Y-54215000D03*
G04 #@! TO.P,U2,33,D0*
G04 #@! TO.N,D0*
X94522500Y-51675000D03*
G04 #@! TO.P,U2,34,R/~{W}*
G04 #@! TO.N,RW\u002A*
X94522500Y-49135000D03*
G04 #@! TO.P,U2,35,nc*
G04 #@! TO.N,unconnected-(U2-Pad35)*
X94522500Y-46595000D03*
G04 #@! TO.P,U2,36,BE*
G04 #@! TO.N,VCC*
X94522500Y-44055000D03*
G04 #@! TO.P,U2,37,\u03D50*
G04 #@! TO.N,CLK*
X94522500Y-41515000D03*
G04 #@! TO.P,U2,38,~{SO}*
G04 #@! TO.N,unconnected-(U2-Pad38)*
X94522500Y-38975000D03*
G04 #@! TO.P,U2,39,\u03D52*
G04 #@! TO.N,unconnected-(U2-Pad39)*
X94522500Y-36435000D03*
G04 #@! TO.P,U2,40,~{RES}*
G04 #@! TO.N,RESET\u002A*
X94522500Y-33895000D03*
G04 #@! TD*
D11*
G04 #@! TO.P,U7,1,VSS*
G04 #@! TO.N,GND*
X108492500Y-33890000D03*
D12*
G04 #@! TO.P,U7,2,PA0*
G04 #@! TO.N,unconnected-(U7-Pad2)*
X108492500Y-36430000D03*
G04 #@! TO.P,U7,3,PA1*
G04 #@! TO.N,unconnected-(U7-Pad3)*
X108492500Y-38970000D03*
G04 #@! TO.P,U7,4,PA2*
G04 #@! TO.N,unconnected-(U7-Pad4)*
X108492500Y-41510000D03*
G04 #@! TO.P,U7,5,PA3*
G04 #@! TO.N,unconnected-(U7-Pad5)*
X108492500Y-44050000D03*
G04 #@! TO.P,U7,6,PA4*
G04 #@! TO.N,unconnected-(U7-Pad6)*
X108492500Y-46590000D03*
G04 #@! TO.P,U7,7,PA5*
G04 #@! TO.N,unconnected-(U7-Pad7)*
X108492500Y-49130000D03*
G04 #@! TO.P,U7,8,PA6*
G04 #@! TO.N,unconnected-(U7-Pad8)*
X108492500Y-51670000D03*
G04 #@! TO.P,U7,9,PA7*
G04 #@! TO.N,unconnected-(U7-Pad9)*
X108492500Y-54210000D03*
G04 #@! TO.P,U7,10,PB0*
G04 #@! TO.N,Net-(U7-Pad10)*
X108492500Y-56750000D03*
G04 #@! TO.P,U7,11,PB1*
G04 #@! TO.N,Net-(U7-Pad11)*
X108492500Y-59290000D03*
G04 #@! TO.P,U7,12,PB2*
G04 #@! TO.N,Net-(U7-Pad12)*
X108492500Y-61830000D03*
G04 #@! TO.P,U7,13,PB3*
G04 #@! TO.N,Net-(U7-Pad13)*
X108492500Y-64370000D03*
G04 #@! TO.P,U7,14,PB4*
G04 #@! TO.N,Net-(U7-Pad14)*
X108492500Y-66910000D03*
G04 #@! TO.P,U7,15,PB5*
G04 #@! TO.N,Net-(U7-Pad15)*
X108492500Y-69450000D03*
G04 #@! TO.P,U7,16,PB6*
G04 #@! TO.N,Net-(U7-Pad16)*
X108492500Y-71990000D03*
G04 #@! TO.P,U7,17,PB7*
G04 #@! TO.N,unconnected-(U7-Pad17)*
X108492500Y-74530000D03*
G04 #@! TO.P,U7,18,CB1*
G04 #@! TO.N,unconnected-(U7-Pad18)*
X108492500Y-77070000D03*
G04 #@! TO.P,U7,19,CB2*
G04 #@! TO.N,unconnected-(U7-Pad19)*
X108492500Y-79610000D03*
G04 #@! TO.P,U7,20,VCC*
G04 #@! TO.N,VCC*
X108492500Y-82150000D03*
G04 #@! TO.P,U7,21,~{IRQ}*
G04 #@! TO.N,Net-(D2-Pad1)*
X123732500Y-82150000D03*
G04 #@! TO.P,U7,22,R/~{W}*
G04 #@! TO.N,RW\u002A*
X123732500Y-79610000D03*
G04 #@! TO.P,U7,23,~{CS2}*
G04 #@! TO.N,Net-(U1-Pad8)*
X123732500Y-77070000D03*
G04 #@! TO.P,U7,24,CS1*
G04 #@! TO.N,A13*
X123732500Y-74530000D03*
G04 #@! TO.P,U7,25,\u03D52*
G04 #@! TO.N,CLK*
X123732500Y-71990000D03*
G04 #@! TO.P,U7,26,D7*
G04 #@! TO.N,D7*
X123732500Y-69450000D03*
G04 #@! TO.P,U7,27,D6*
G04 #@! TO.N,D6*
X123732500Y-66910000D03*
G04 #@! TO.P,U7,28,D5*
G04 #@! TO.N,D5*
X123732500Y-64370000D03*
G04 #@! TO.P,U7,29,D4*
G04 #@! TO.N,D4*
X123732500Y-61830000D03*
G04 #@! TO.P,U7,30,D3*
G04 #@! TO.N,D3*
X123732500Y-59290000D03*
G04 #@! TO.P,U7,31,D2*
G04 #@! TO.N,D2*
X123732500Y-56750000D03*
G04 #@! TO.P,U7,32,D1*
G04 #@! TO.N,D1*
X123732500Y-54210000D03*
G04 #@! TO.P,U7,33,D0*
G04 #@! TO.N,D0*
X123732500Y-51670000D03*
G04 #@! TO.P,U7,34,~{RES}*
G04 #@! TO.N,RESET\u002A*
X123732500Y-49130000D03*
G04 #@! TO.P,U7,35,RS3*
G04 #@! TO.N,A3*
X123732500Y-46590000D03*
G04 #@! TO.P,U7,36,RS2*
G04 #@! TO.N,A2*
X123732500Y-44050000D03*
G04 #@! TO.P,U7,37,RS1*
G04 #@! TO.N,A1*
X123732500Y-41510000D03*
G04 #@! TO.P,U7,38,RS0*
G04 #@! TO.N,A0*
X123732500Y-38970000D03*
G04 #@! TO.P,U7,39,CA2*
G04 #@! TO.N,unconnected-(U7-Pad39)*
X123732500Y-36430000D03*
G04 #@! TO.P,U7,40,CA1*
G04 #@! TO.N,unconnected-(U7-Pad40)*
X123732500Y-33890000D03*
G04 #@! TD*
D23*
G04 #@! TO.P,Y1,1,1*
G04 #@! TO.N,Net-(C5-Pad1)*
X101502500Y-99845000D03*
G04 #@! TO.P,Y1,2,2*
G04 #@! TO.N,XTAL*
X101502500Y-104745000D03*
G04 #@! TD*
D11*
G04 #@! TO.P,U1,1*
G04 #@! TO.N,A15*
X55162500Y-87225000D03*
D12*
G04 #@! TO.P,U1,2*
X55162500Y-89765000D03*
G04 #@! TO.P,U1,3*
G04 #@! TO.N,A15\u002A*
X55162500Y-92305000D03*
G04 #@! TO.P,U1,4*
X55162500Y-94845000D03*
G04 #@! TO.P,U1,5*
G04 #@! TO.N,CLK*
X55162500Y-97385000D03*
G04 #@! TO.P,U1,6*
G04 #@! TO.N,Net-(U1-Pad6)*
X55162500Y-99925000D03*
G04 #@! TO.P,U1,7,GND*
G04 #@! TO.N,GND*
X55162500Y-102465000D03*
G04 #@! TO.P,U1,8*
G04 #@! TO.N,Net-(U1-Pad8)*
X62782500Y-102465000D03*
G04 #@! TO.P,U1,9*
G04 #@! TO.N,A14*
X62782500Y-99925000D03*
G04 #@! TO.P,U1,10*
G04 #@! TO.N,A15\u002A*
X62782500Y-97385000D03*
G04 #@! TO.P,U1,11*
G04 #@! TO.N,unconnected-(U1-Pad11)*
X62782500Y-94845000D03*
G04 #@! TO.P,U1,12*
G04 #@! TO.N,GND*
X62782500Y-92305000D03*
G04 #@! TO.P,U1,13*
X62782500Y-89765000D03*
G04 #@! TO.P,U1,14,VCC*
G04 #@! TO.N,VCC*
X62782500Y-87225000D03*
G04 #@! TD*
D10*
G04 #@! TO.P,R4,1*
G04 #@! TO.N,XTAL*
X100232500Y-109915000D03*
D12*
G04 #@! TO.P,R4,2*
G04 #@! TO.N,Net-(C5-Pad1)*
X100232500Y-120075000D03*
G04 #@! TD*
D10*
G04 #@! TO.P,C1,1*
G04 #@! TO.N,VCC*
X52705000Y-59095000D03*
G04 #@! TO.P,C1,2*
G04 #@! TO.N,GND*
X52705000Y-64095000D03*
G04 #@! TD*
G04 #@! TO.P,C5,1*
G04 #@! TO.N,Net-(C5-Pad1)*
X104042500Y-109915000D03*
G04 #@! TO.P,C5,2*
G04 #@! TO.N,GND*
X104042500Y-114915000D03*
G04 #@! TD*
D24*
G04 #@! TO.P,SW2,1,1*
G04 #@! TO.N,Net-(R1-Pad1)*
X45212000Y-38100000D03*
G04 #@! TO.P,SW2,2,2*
G04 #@! TO.N,GND*
X45212000Y-30480000D03*
G04 #@! TO.P,SW2,3,3*
G04 #@! TO.N,Net-(R6-Pad1)*
X50292000Y-38100000D03*
G04 #@! TO.P,SW2,4,4*
G04 #@! TO.N,unconnected-(SW2-Pad4)*
X50292000Y-30480000D03*
G04 #@! TD*
D10*
G04 #@! TO.P,R2,1*
G04 #@! TO.N,VCC*
X41382500Y-81910000D03*
D12*
G04 #@! TO.P,R2,2*
G04 #@! TO.N,Net-(LED_1-Pad2)*
X41382500Y-71750000D03*
G04 #@! TD*
D17*
G04 #@! TO.P,LED_1,1,K*
G04 #@! TO.N,GND*
X33020000Y-32365048D03*
D22*
G04 #@! TO.P,LED_1,2,A*
G04 #@! TO.N,Net-(LED_1-Pad2)*
X33020000Y-29825048D03*
G04 #@! TD*
D10*
G04 #@! TO.P,C2,1*
G04 #@! TO.N,VCC*
X59167500Y-111400000D03*
G04 #@! TO.P,C2,2*
G04 #@! TO.N,GND*
X59167500Y-116400000D03*
G04 #@! TD*
D11*
G04 #@! TO.P,U6,1,C1+*
G04 #@! TO.N,Net-(C6-Pad1)*
X41377500Y-87405000D03*
D12*
G04 #@! TO.P,U6,2,VS+*
G04 #@! TO.N,Net-(C8-Pad2)*
X41377500Y-89945000D03*
G04 #@! TO.P,U6,3,C1-*
G04 #@! TO.N,Net-(C6-Pad2)*
X41377500Y-92485000D03*
G04 #@! TO.P,U6,4,C2+*
G04 #@! TO.N,Net-(C7-Pad1)*
X41377500Y-95025000D03*
G04 #@! TO.P,U6,5,C2-*
G04 #@! TO.N,Net-(C7-Pad2)*
X41377500Y-97565000D03*
G04 #@! TO.P,U6,6,VS-*
G04 #@! TO.N,Net-(C9-Pad1)*
X41377500Y-100105000D03*
G04 #@! TO.P,U6,7,T2OUT*
G04 #@! TO.N,unconnected-(U6-Pad7)*
X41377500Y-102645000D03*
G04 #@! TO.P,U6,8,R2IN*
G04 #@! TO.N,unconnected-(U6-Pad8)*
X41377500Y-105185000D03*
G04 #@! TO.P,U6,9,R2OUT*
G04 #@! TO.N,unconnected-(U6-Pad9)*
X48997500Y-105185000D03*
G04 #@! TO.P,U6,10,T2IN*
G04 #@! TO.N,unconnected-(U6-Pad10)*
X48997500Y-102645000D03*
G04 #@! TO.P,U6,11,T1IN*
G04 #@! TO.N,Net-(U4-Pad10)*
X48997500Y-100105000D03*
G04 #@! TO.P,U6,12,R1OUT*
G04 #@! TO.N,MAX232_12*
X48997500Y-97565000D03*
G04 #@! TO.P,U6,13,R1IN*
G04 #@! TO.N,TXD*
X48997500Y-95025000D03*
G04 #@! TO.P,U6,14,T1OUT*
G04 #@! TO.N,RXD*
X48997500Y-92485000D03*
G04 #@! TO.P,U6,15,GND*
G04 #@! TO.N,GND*
X48997500Y-89945000D03*
G04 #@! TO.P,U6,16,VCC*
G04 #@! TO.N,VCC*
X48997500Y-87405000D03*
G04 #@! TD*
D10*
G04 #@! TO.P,R6,1*
G04 #@! TO.N,Net-(R6-Pad1)*
X56515000Y-55880000D03*
D12*
G04 #@! TO.P,R6,2*
G04 #@! TO.N,Net-(C11-Pad1)*
X56515000Y-45720000D03*
G04 #@! TD*
D10*
G04 #@! TO.P,R5,1*
G04 #@! TO.N,CLK*
X45660833Y-81910000D03*
D12*
G04 #@! TO.P,R5,2*
G04 #@! TO.N,Net-(LED_2-Pad2)*
X45660833Y-71750000D03*
G04 #@! TD*
D10*
G04 #@! TO.P,C7,1*
G04 #@! TO.N,Net-(C7-Pad1)*
X42637500Y-111585000D03*
G04 #@! TO.P,C7,2*
G04 #@! TO.N,Net-(C7-Pad2)*
X42637500Y-116585000D03*
G04 #@! TD*
G04 #@! TO.P,C4,1*
G04 #@! TO.N,VCC*
X66787500Y-111400000D03*
G04 #@! TO.P,C4,2*
G04 #@! TO.N,GND*
X66787500Y-116400000D03*
G04 #@! TD*
D17*
G04 #@! TO.P,LED_2,1,K*
G04 #@! TO.N,GND*
X33020000Y-40630024D03*
D22*
G04 #@! TO.P,LED_2,2,A*
G04 #@! TO.N,Net-(LED_2-Pad2)*
X33020000Y-38090024D03*
G04 #@! TD*
D25*
G04 #@! TO.P,J4,1,Pin_1*
G04 #@! TO.N,CLK*
X109220000Y-129525000D03*
D26*
G04 #@! TO.P,J4,2,Pin_2*
G04 #@! TO.N,RESET\u002A*
X109220000Y-126985000D03*
G04 #@! TO.P,J4,3,Pin_3*
G04 #@! TO.N,MAX232_12*
X109220000Y-124445000D03*
G04 #@! TO.P,J4,4,Pin_4*
G04 #@! TO.N,TXD*
X109220000Y-121905000D03*
G04 #@! TO.P,J4,5,Pin_5*
G04 #@! TO.N,GND*
X109220000Y-119365000D03*
G04 #@! TO.P,J4,6,Pin_6*
X109220000Y-116825000D03*
G04 #@! TO.P,J4,7,Pin_7*
X109220000Y-114285000D03*
G04 #@! TO.P,J4,8,Pin_8*
X109220000Y-111745000D03*
G04 #@! TD*
D11*
G04 #@! TO.P,X1,1,Vcontrol*
G04 #@! TO.N,unconnected-(X1-Pad1)*
X50072500Y-132950000D03*
D10*
G04 #@! TO.P,X1,7,GND*
G04 #@! TO.N,GND*
X65312500Y-132950000D03*
G04 #@! TO.P,X1,8,OUT*
G04 #@! TO.N,CLK*
X65312500Y-125330000D03*
G04 #@! TO.P,X1,14,Vcc*
G04 #@! TO.N,VCC*
X50072500Y-125330000D03*
G04 #@! TD*
G04 #@! TO.P,R7,1*
G04 #@! TO.N,Net-(R7-Pad1)*
X60325000Y-45720000D03*
D12*
G04 #@! TO.P,R7,2*
G04 #@! TO.N,Net-(D3-Pad2)*
X60325000Y-55880000D03*
G04 #@! TD*
D10*
G04 #@! TO.P,C3,1*
G04 #@! TO.N,VCC*
X62977500Y-111400000D03*
G04 #@! TO.P,C3,2*
G04 #@! TO.N,GND*
X62977500Y-116400000D03*
G04 #@! TD*
G04 #@! TO.P,R1,1*
G04 #@! TO.N,Net-(R1-Pad1)*
X52705000Y-55880000D03*
D12*
G04 #@! TO.P,R1,2*
G04 #@! TO.N,VCC*
X52705000Y-45720000D03*
G04 #@! TD*
D10*
G04 #@! TO.P,C11,1*
G04 #@! TO.N,Net-(C11-Pad1)*
X60325000Y-59095000D03*
G04 #@! TO.P,C11,2*
G04 #@! TO.N,GND*
X60325000Y-64095000D03*
G04 #@! TD*
D11*
G04 #@! TO.P,U9,1*
G04 #@! TO.N,Net-(C11-Pad1)*
X41377500Y-46350000D03*
D12*
G04 #@! TO.P,U9,2*
G04 #@! TO.N,Net-(R7-Pad1)*
X41377500Y-48890000D03*
G04 #@! TO.P,U9,3*
X41377500Y-51430000D03*
G04 #@! TO.P,U9,4*
G04 #@! TO.N,RESET\u002A*
X41377500Y-53970000D03*
G04 #@! TO.P,U9,5*
G04 #@! TO.N,GND*
X41377500Y-56510000D03*
G04 #@! TO.P,U9,6*
G04 #@! TO.N,unconnected-(U9-Pad6)*
X41377500Y-59050000D03*
G04 #@! TO.P,U9,7,GND*
G04 #@! TO.N,GND*
X41377500Y-61590000D03*
G04 #@! TO.P,U9,8*
G04 #@! TO.N,unconnected-(U9-Pad8)*
X48997500Y-61590000D03*
G04 #@! TO.P,U9,9*
G04 #@! TO.N,GND*
X48997500Y-59050000D03*
G04 #@! TO.P,U9,10*
G04 #@! TO.N,unconnected-(U9-Pad10)*
X48997500Y-56510000D03*
G04 #@! TO.P,U9,11*
G04 #@! TO.N,GND*
X48997500Y-53970000D03*
G04 #@! TO.P,U9,12*
G04 #@! TO.N,unconnected-(U9-Pad12)*
X48997500Y-51430000D03*
G04 #@! TO.P,U9,13*
G04 #@! TO.N,GND*
X48997500Y-48890000D03*
G04 #@! TO.P,U9,14,VCC*
G04 #@! TO.N,VCC*
X48997500Y-46350000D03*
G04 #@! TD*
D17*
G04 #@! TO.P,D2,1,K*
G04 #@! TO.N,Net-(D2-Pad1)*
X64710834Y-82150000D03*
D18*
G04 #@! TO.P,D2,2,A*
G04 #@! TO.N,IRQ\u002A*
X64710834Y-71990000D03*
G04 #@! TD*
D27*
G04 #@! TO.P,U5,1,A14*
G04 #@! TO.N,A14*
X142240000Y-41910000D03*
D28*
G04 #@! TO.P,U5,2,A12*
G04 #@! TO.N,A12*
X142240000Y-44450000D03*
G04 #@! TO.P,U5,3,A7*
G04 #@! TO.N,A7*
X142240000Y-46990000D03*
G04 #@! TO.P,U5,4,A6*
G04 #@! TO.N,A6*
X142240000Y-49530000D03*
G04 #@! TO.P,U5,5,A5*
G04 #@! TO.N,A5*
X142240000Y-52070000D03*
G04 #@! TO.P,U5,6,A4*
G04 #@! TO.N,A4*
X142240000Y-54610000D03*
G04 #@! TO.P,U5,7,A3*
G04 #@! TO.N,A3*
X142240000Y-57150000D03*
G04 #@! TO.P,U5,8,A2*
G04 #@! TO.N,A2*
X142240000Y-59690000D03*
G04 #@! TO.P,U5,9,A1*
G04 #@! TO.N,A1*
X142240000Y-62230000D03*
G04 #@! TO.P,U5,10,A0*
G04 #@! TO.N,A0*
X142240000Y-64770000D03*
G04 #@! TO.P,U5,11,Q0*
G04 #@! TO.N,D0*
X142240000Y-67310000D03*
G04 #@! TO.P,U5,12,Q1*
G04 #@! TO.N,D1*
X142240000Y-69850000D03*
G04 #@! TO.P,U5,13,Q2*
G04 #@! TO.N,D2*
X142240000Y-72390000D03*
G04 #@! TO.P,U5,14,GND*
G04 #@! TO.N,GND*
X142240000Y-74930000D03*
G04 #@! TO.P,U5,15,Q3*
G04 #@! TO.N,D3*
X157480000Y-74930000D03*
G04 #@! TO.P,U5,16,Q4*
G04 #@! TO.N,D4*
X157480000Y-72390000D03*
G04 #@! TO.P,U5,17,Q5*
G04 #@! TO.N,D5*
X157480000Y-69850000D03*
G04 #@! TO.P,U5,18,Q6*
G04 #@! TO.N,D6*
X157480000Y-67310000D03*
G04 #@! TO.P,U5,19,Q7*
G04 #@! TO.N,D7*
X157480000Y-64770000D03*
G04 #@! TO.P,U5,20,~{CS}*
G04 #@! TO.N,Net-(U1-Pad6)*
X157480000Y-62230000D03*
G04 #@! TO.P,U5,21,A10*
G04 #@! TO.N,A10*
X157480000Y-59690000D03*
G04 #@! TO.P,U5,22,~{OE}*
G04 #@! TO.N,A14*
X157480000Y-57150000D03*
G04 #@! TO.P,U5,23,A11*
G04 #@! TO.N,A11*
X157480000Y-54610000D03*
G04 #@! TO.P,U5,24,A9*
G04 #@! TO.N,A9*
X157480000Y-52070000D03*
G04 #@! TO.P,U5,25,A8*
G04 #@! TO.N,A8*
X157480000Y-49530000D03*
G04 #@! TO.P,U5,26,A13*
G04 #@! TO.N,A13*
X157480000Y-46990000D03*
G04 #@! TO.P,U5,27,~{WE}*
G04 #@! TO.N,RW\u002A*
X157480000Y-44450000D03*
G04 #@! TO.P,U5,28,VCC*
G04 #@! TO.N,VCC*
X157480000Y-41910000D03*
G04 #@! TD*
D29*
G04 #@! TO.P,RV1,1,1*
G04 #@! TO.N,GND*
X111017500Y-98585000D03*
G04 #@! TO.P,RV1,2,2*
G04 #@! TO.N,Net-(RV1-Pad2)*
X108477500Y-98585000D03*
G04 #@! TO.P,RV1,3,3*
G04 #@! TO.N,unconnected-(RV1-Pad3)*
X105937500Y-98585000D03*
G04 #@! TD*
D30*
G04 #@! TO.N,GND*
X74676000Y-37084000D03*
X105156000Y-35052000D03*
X158022500Y-106280000D03*
X106680000Y-114935000D03*
X78012500Y-92310000D03*
X55245000Y-114935000D03*
X109762500Y-92310000D03*
X56561992Y-92310554D03*
X44196000Y-48260000D03*
X122462500Y-106280000D03*
X94522500Y-92310000D03*
G04 #@! TO.N,VCC*
X122462500Y-94850000D03*
X97865503Y-82150000D03*
X88804001Y-111360000D03*
X57785000Y-124460000D03*
X34925000Y-40005000D03*
X91982500Y-48444500D03*
X97062500Y-111360000D03*
X108492500Y-93580000D03*
X91982500Y-33877999D03*
G04 #@! TO.N,Net-(C5-Pad1)*
X89442500Y-110090000D03*
X90712500Y-117710000D03*
G04 #@! TO.N,Net-(C9-Pad1)*
X42452500Y-107550000D03*
G04 #@! TO.N,IRQ\u002A*
X69215000Y-43180000D03*
X69215000Y-71755000D03*
G04 #@! TO.N,Net-(D1-Pad1)*
X64082794Y-101774500D03*
G04 #@! TO.N,TXD*
X53340000Y-121285000D03*
G04 #@! TO.N,RXD*
X53340000Y-92075000D03*
G04 #@! TO.N,Net-(LED_1-Pad2)*
X40005000Y-31115000D03*
G04 #@! TO.N,Net-(R3-Pad2)*
X71120000Y-72390000D03*
X71120000Y-39370000D03*
G04 #@! TO.N,CLK*
X90357840Y-127164500D03*
X99602500Y-98660000D03*
X128812500Y-70720000D03*
X54438000Y-107109520D03*
X89442500Y-108820000D03*
X46262500Y-96120000D03*
G04 #@! TO.N,Net-(D2-Pad1)*
X122555000Y-88900000D03*
G04 #@! TO.N,RESET\u002A*
X119922500Y-36430000D03*
X82550000Y-126365000D03*
X73025000Y-104775000D03*
X72390001Y-35822599D03*
X72390000Y-57785000D03*
G04 #@! TO.N,A15*
X90712500Y-88500000D03*
X90712500Y-71990000D03*
G04 #@! TO.N,A15\u002A*
X185962500Y-96120000D03*
G04 #@! TO.N,Net-(U1-Pad6)*
X160562500Y-101200000D03*
G04 #@! TO.N,Net-(U1-Pad8)*
X65312500Y-89770000D03*
X67310000Y-102870000D03*
X109929590Y-90259500D03*
X111948998Y-78340000D03*
G04 #@! TO.N,A14*
X95068000Y-97390000D03*
X111032500Y-77070000D03*
X107092997Y-74530000D03*
X158022500Y-77070000D03*
X140242500Y-55480000D03*
G04 #@! TO.N,A0*
X125132003Y-61830000D03*
X81822500Y-38970000D03*
X81822500Y-54210000D03*
X137702500Y-52940000D03*
X74239500Y-55480000D03*
X74202500Y-124060000D03*
G04 #@! TO.N,A1*
X126272500Y-41510000D03*
X126272500Y-60560000D03*
X75472500Y-58020000D03*
X80552500Y-42780000D03*
G04 #@! TO.N,A2*
X121192500Y-40240000D03*
X127542500Y-58020000D03*
X127542500Y-45320000D03*
X80552500Y-40240000D03*
G04 #@! TO.N,A3*
X76742500Y-46590000D03*
X125002500Y-55480000D03*
G04 #@! TO.N,A4*
X144052500Y-66910000D03*
G04 #@! TO.N,A5*
X141512500Y-32620000D03*
X119922500Y-55480000D03*
X121192500Y-33890000D03*
X81822500Y-66910000D03*
X81822500Y-56750000D03*
G04 #@! TO.N,A6*
X121192500Y-73260000D03*
X125132003Y-74530000D03*
X138972500Y-74530000D03*
G04 #@! TO.N,A7*
X81132000Y-48223234D03*
G04 #@! TO.N,A8*
X83092500Y-50400000D03*
G04 #@! TO.N,A9*
X154212500Y-82150000D03*
X81822500Y-83420000D03*
G04 #@! TO.N,A10*
X154212500Y-83420000D03*
X84362500Y-84690000D03*
X81822500Y-79610000D03*
G04 #@! TO.N,A11*
X151672500Y-84690000D03*
X155482500Y-55480000D03*
G04 #@! TO.N,A12*
X90712500Y-99930000D03*
X119922500Y-45320000D03*
X92528000Y-60560000D03*
X118652500Y-56750000D03*
G04 #@! TO.N,A13*
X159529500Y-74205500D03*
G04 #@! TO.N,D7*
X109892003Y-69450000D03*
X105952500Y-69450000D03*
X152307500Y-65005000D03*
X151672500Y-78340000D03*
X130082500Y-77070000D03*
G04 #@! TO.N,D6*
X136432500Y-87230000D03*
X102142500Y-87230000D03*
X137702500Y-75800000D03*
X100872500Y-66910000D03*
X152942500Y-66910000D03*
X152942500Y-77070000D03*
X137702500Y-66910000D03*
G04 #@! TO.N,D5*
X111032500Y-64370000D03*
X125132003Y-69450000D03*
X105952500Y-64370000D03*
G04 #@! TO.N,D4*
X126272500Y-71990000D03*
G04 #@! TO.N,D3*
X156752500Y-77070000D03*
X90712500Y-64370000D03*
X132622500Y-77070000D03*
X88354500Y-115170000D03*
X127542500Y-60560000D03*
G04 #@! TO.N,D2*
X121192500Y-71990000D03*
X103412500Y-56750000D03*
X97062500Y-56750000D03*
X119922500Y-58020000D03*
G04 #@! TO.N,D1*
X99602500Y-70720000D03*
X121192500Y-55480000D03*
X97062500Y-54210000D03*
X122386909Y-70719999D03*
G04 #@! TO.N,D0*
X88265000Y-122555000D03*
X91982500Y-66910000D03*
X122332997Y-66910000D03*
X91982500Y-51670000D03*
G04 #@! TO.N,RW\u002A*
X154120881Y-78576505D03*
X93212205Y-78380294D03*
X88804001Y-97374999D03*
X90712500Y-79610000D03*
G04 #@! TO.N,Net-(U7-Pad10)*
X146592500Y-92310000D03*
X119357036Y-90259500D03*
G04 #@! TO.N,Net-(U7-Pad11)*
X116112500Y-91040000D03*
X149132500Y-94850000D03*
G04 #@! TO.N,Net-(U7-Pad12)*
X114842500Y-92310000D03*
X151037500Y-95485000D03*
G04 #@! TO.N,Net-(U7-Pad13)*
X114842500Y-93580000D03*
X154212500Y-96120000D03*
X111032500Y-63100000D03*
G04 #@! TO.N,Net-(U7-Pad14)*
X128812500Y-102470000D03*
X105952500Y-102470000D03*
G04 #@! TO.N,Net-(U7-Pad15)*
X114842500Y-103740000D03*
X131352500Y-103740000D03*
G04 #@! TO.N,Net-(U7-Pad16)*
X132622500Y-105010000D03*
X116112500Y-105010000D03*
G04 #@! TO.N,Net-(R1-Pad1)*
X45212000Y-51308000D03*
G04 #@! TO.N,Net-(R6-Pad1)*
X60960000Y-42672000D03*
G04 #@! TO.N,MAX232_12*
X75472500Y-98660000D03*
G04 #@! TO.N,Net-(U4-Pad10)*
X80521451Y-107581049D03*
G04 #@! TD*
D31*
G04 #@! TO.N,GND*
X142240000Y-80470000D02*
X160312500Y-98542500D01*
X41377500Y-56510000D02*
X42502500Y-57635000D01*
X158022500Y-100832500D02*
X160312500Y-98542500D01*
X67852500Y-117465000D02*
X67852500Y-131680000D01*
X111017500Y-100437500D02*
X111017500Y-98585000D01*
X44188500Y-31503500D02*
X44188500Y-48252500D01*
X109220000Y-119365000D02*
X109220000Y-116825000D01*
X47872500Y-57925000D02*
X48997500Y-59050000D01*
X58420000Y-66000000D02*
X58420000Y-90452546D01*
X66582500Y-132950000D02*
X65312500Y-132950000D01*
X106318000Y-33890000D02*
X105156000Y-35052000D01*
X106680000Y-114935000D02*
X107950000Y-113665000D01*
X79282500Y-93580000D02*
X79282500Y-96120000D01*
X94522500Y-82155000D02*
X94522500Y-92310000D01*
X63950000Y-21230331D02*
X63950000Y-26358000D01*
X109220000Y-116825000D02*
X109220000Y-114285000D01*
X31795000Y-39405024D02*
X33020000Y-40630024D01*
X42502500Y-57635000D02*
X42502500Y-60465000D01*
X55162500Y-102465000D02*
X55162500Y-114852500D01*
X107950000Y-113665000D02*
X107950000Y-103505000D01*
X46487500Y-116625000D02*
X50217500Y-116625000D01*
X28642500Y-36252524D02*
X33020000Y-40630024D01*
X67852500Y-131680000D02*
X66582500Y-132950000D01*
X108492500Y-33890000D02*
X106318000Y-33890000D01*
X50217500Y-116625000D02*
X50257500Y-116585000D01*
X62977500Y-116400000D02*
X59167500Y-116400000D01*
X109220000Y-114285000D02*
X108570000Y-114285000D01*
X189656666Y-60830000D02*
X189656666Y-58290000D01*
X63950000Y-26358000D02*
X74676000Y-37084000D01*
X108570000Y-114285000D02*
X107950000Y-113665000D01*
X78027500Y-97375000D02*
X78007500Y-97375000D01*
X58420000Y-90452546D02*
X56561992Y-92310554D01*
X33020000Y-32365048D02*
X31795000Y-33590048D01*
X109762500Y-92310000D02*
X111017500Y-93565000D01*
X78012500Y-92310000D02*
X79282500Y-93580000D01*
X55162500Y-102465000D02*
X56561992Y-101065508D01*
X175541666Y-74945000D02*
X189656666Y-60830000D01*
X142240000Y-74930000D02*
X142240000Y-80470000D01*
X48997500Y-53970000D02*
X47872500Y-55095000D01*
X111017500Y-93565000D02*
X111017500Y-98585000D01*
X79282500Y-96120000D02*
X78027500Y-97375000D01*
X47872500Y-55095000D02*
X47872500Y-57925000D01*
X50122500Y-50015000D02*
X50122500Y-52845000D01*
X28642500Y-21765000D02*
X28642500Y-36252524D01*
X45212000Y-30480000D02*
X44188500Y-31503500D01*
X109220000Y-111745000D02*
X109220000Y-114285000D01*
X44188500Y-48252500D02*
X44196000Y-48260000D01*
X56561992Y-101065508D02*
X56561992Y-92310554D01*
X189656666Y-58290000D02*
X190781666Y-57165000D01*
X66787500Y-116400000D02*
X67852500Y-117465000D01*
X31795000Y-33590048D02*
X31795000Y-39405024D01*
X48997500Y-48890000D02*
X50122500Y-50015000D01*
X66787500Y-116400000D02*
X62977500Y-116400000D01*
X122212500Y-98542500D02*
X122212500Y-106030000D01*
X158022500Y-106280000D02*
X158022500Y-100832500D01*
X60325000Y-64095000D02*
X58420000Y-66000000D01*
X122212500Y-106030000D02*
X122462500Y-106280000D01*
X55162500Y-114852500D02*
X55245000Y-114935000D01*
X62782500Y-89765000D02*
X62782500Y-92305000D01*
X42502500Y-60465000D02*
X41377500Y-61590000D01*
X107950000Y-103505000D02*
X111017500Y-100437500D01*
X50122500Y-52845000D02*
X48997500Y-53970000D01*
G04 #@! TO.N,Net-(C11-Pad1)*
X58139009Y-59095000D02*
X60325000Y-59095000D01*
X56515000Y-45720000D02*
X55390000Y-46845000D01*
X55390000Y-46845000D02*
X55390000Y-56345991D01*
X55390000Y-56345991D02*
X58139009Y-59095000D01*
G04 #@! TO.N,VCC*
X66787500Y-111400000D02*
X62977500Y-111400000D01*
X94522500Y-44055000D02*
X91982500Y-41515000D01*
X51580000Y-55414009D02*
X52705000Y-54289009D01*
X91982500Y-48444500D02*
X92745200Y-47681800D01*
X96242001Y-65772130D02*
X97590504Y-67120633D01*
X48997500Y-87405000D02*
X48997500Y-82985000D01*
X66787500Y-111400000D02*
X66787500Y-109025000D01*
X97865503Y-99218981D02*
X97865503Y-82150000D01*
X52705000Y-57470991D02*
X51580000Y-56345991D01*
X92745200Y-45832300D02*
X94522500Y-44055000D01*
X108492500Y-82150000D02*
X108492500Y-93580000D01*
X51580000Y-56345991D02*
X51580000Y-55414009D01*
X91982500Y-41515000D02*
X91982500Y-33877999D01*
X33342500Y-24765000D02*
X34925000Y-26347500D01*
X96242001Y-45774501D02*
X96242001Y-65772130D01*
X97062500Y-111360000D02*
X97062500Y-110090000D01*
X53975000Y-80645000D02*
X52705000Y-81915000D01*
X53975000Y-60365000D02*
X53975000Y-80645000D01*
X122462500Y-94850000D02*
X124752500Y-97140000D01*
X89442500Y-111998499D02*
X88804001Y-111360000D01*
X97590504Y-67120633D02*
X97590504Y-77913563D01*
X58042500Y-112525000D02*
X58042500Y-124202500D01*
X97590504Y-77913563D02*
X97895005Y-78218064D01*
X34925000Y-26347500D02*
X34925000Y-40005000D01*
X61502500Y-103740000D02*
X61502500Y-88505000D01*
X124752500Y-97140000D02*
X124752500Y-98542500D01*
X97590504Y-81875001D02*
X97865503Y-82150000D01*
X52705000Y-59095000D02*
X52705000Y-57470991D01*
X59167500Y-111400000D02*
X58042500Y-112525000D01*
X52705000Y-59095000D02*
X53975000Y-60365000D01*
X97895005Y-81011936D02*
X97590504Y-81316437D01*
X97590504Y-81316437D02*
X97590504Y-81875001D01*
X52700000Y-81910000D02*
X50072500Y-81910000D01*
X66787500Y-109025000D02*
X61502500Y-103740000D01*
X59167500Y-111400000D02*
X62977500Y-111400000D01*
X52705000Y-81915000D02*
X52700000Y-81910000D01*
X98332500Y-108820000D02*
X98332500Y-99685978D01*
X92745200Y-47681800D02*
X92745200Y-45832300D01*
X58042500Y-124202500D02*
X57785000Y-124460000D01*
X92116130Y-130395000D02*
X89442500Y-127721370D01*
X80407500Y-47720000D02*
X80407500Y-50550000D01*
X98332500Y-99685978D02*
X97865503Y-99218981D01*
X89442500Y-127721370D02*
X89442500Y-111998499D01*
X61502500Y-88505000D02*
X62782500Y-87225000D01*
X97895005Y-78218064D02*
X97895005Y-81011936D01*
X190781666Y-41925000D02*
X190781666Y-44465000D01*
X79282500Y-46595000D02*
X80407500Y-47720000D01*
X48997500Y-82985000D02*
X50072500Y-81910000D01*
X93247500Y-130395000D02*
X92116130Y-130395000D01*
X80407500Y-50550000D02*
X79282500Y-51675000D01*
X97062500Y-110090000D02*
X98332500Y-108820000D01*
X94522500Y-44055000D02*
X96242001Y-45774501D01*
X52705000Y-54289009D02*
X52705000Y-45720000D01*
G04 #@! TO.N,Net-(C5-Pad1)*
X100232500Y-113725000D02*
X100232500Y-120075000D01*
X101502500Y-99845000D02*
X104042500Y-102385000D01*
X104042500Y-102385000D02*
X104042500Y-109915000D01*
X90712500Y-117710000D02*
X90712500Y-111360000D01*
X104042500Y-109915000D02*
X100232500Y-113725000D01*
X90712500Y-111360000D02*
X89442500Y-110090000D01*
G04 #@! TO.N,Net-(C6-Pad1)*
X38827500Y-89955000D02*
X38827500Y-111585000D01*
X41377500Y-87405000D02*
X38827500Y-89955000D01*
G04 #@! TO.N,Net-(C6-Pad2)*
X39912500Y-115500000D02*
X38827500Y-116585000D01*
X39912500Y-115170000D02*
X39912500Y-115500000D01*
X39952500Y-115130000D02*
X39912500Y-115170000D01*
X41377500Y-92485000D02*
X39462500Y-94400000D01*
X39462500Y-110629009D02*
X39952500Y-111119009D01*
X39462500Y-94400000D02*
X39462500Y-110629009D01*
X39952500Y-111119009D02*
X39952500Y-115130000D01*
G04 #@! TO.N,Net-(C7-Pad1)*
X39912500Y-108860000D02*
X42637500Y-111585000D01*
X41377500Y-95025000D02*
X39912500Y-96490000D01*
X39912500Y-96490000D02*
X39912500Y-108860000D01*
G04 #@! TO.N,Net-(C7-Pad2)*
X43762500Y-99950000D02*
X43762500Y-115460000D01*
X43762500Y-115460000D02*
X42637500Y-116585000D01*
X41377500Y-97565000D02*
X43762500Y-99950000D01*
G04 #@! TO.N,Net-(C8-Pad2)*
X42502500Y-92019009D02*
X42502500Y-93530000D01*
X44212500Y-108040000D02*
X46487500Y-110315000D01*
X41377500Y-89945000D02*
X42452500Y-91020000D01*
X46487500Y-110315000D02*
X46487500Y-111625000D01*
X42452500Y-91969009D02*
X42502500Y-92019009D01*
X44212500Y-99150000D02*
X44212500Y-108040000D01*
X42502500Y-93630000D02*
X42502500Y-97440000D01*
X42452500Y-91020000D02*
X42452500Y-91969009D01*
X42452500Y-93580000D02*
X42502500Y-93630000D01*
X42502500Y-93530000D02*
X42452500Y-93580000D01*
X42502500Y-97440000D02*
X44212500Y-99150000D01*
G04 #@! TO.N,Net-(C9-Pad1)*
X42502500Y-101230000D02*
X42502500Y-107500000D01*
X42502500Y-107500000D02*
X42452500Y-107550000D01*
X41377500Y-100105000D02*
X42502500Y-101230000D01*
G04 #@! TO.N,IRQ\u002A*
X69215000Y-71755000D02*
X69215000Y-43180000D01*
G04 #@! TO.N,Net-(D1-Pad1)*
X64357001Y-91995499D02*
X64357001Y-101500293D01*
X66582500Y-84055000D02*
X66582500Y-89770000D01*
X60232500Y-82150000D02*
X61502500Y-83420000D01*
X65947500Y-83420000D02*
X66582500Y-84055000D01*
X64357001Y-101500293D02*
X64082794Y-101774500D01*
X66582500Y-89770000D02*
X64357001Y-91995499D01*
X61502500Y-83420000D02*
X65947500Y-83420000D01*
G04 #@! TO.N,TXD*
X51130499Y-55227820D02*
X51370000Y-54988319D01*
X50800000Y-96827500D02*
X48997500Y-95025000D01*
X48997500Y-95025000D02*
X47872500Y-93900000D01*
X51370000Y-20480331D02*
X51745000Y-20105331D01*
X47872500Y-93900000D02*
X47872500Y-82519009D01*
X51130499Y-56532180D02*
X51130499Y-55227820D01*
X57285000Y-20105331D02*
X58410000Y-21230331D01*
X51370000Y-56771681D02*
X51130499Y-56532180D01*
X47872500Y-82519009D02*
X51370000Y-79021509D01*
X53340000Y-121285000D02*
X52070000Y-120015000D01*
X52070000Y-107315000D02*
X50800000Y-106045000D01*
X52070000Y-120015000D02*
X52070000Y-107315000D01*
X51745000Y-20105331D02*
X57285000Y-20105331D01*
X51370000Y-54988319D02*
X51370000Y-20480331D01*
X51370000Y-79021509D02*
X51370000Y-56771681D01*
X50800000Y-106045000D02*
X50800000Y-96827500D01*
G04 #@! TO.N,RXD*
X55640000Y-21230331D02*
X54424501Y-22445830D01*
X54424501Y-80831189D02*
X53340000Y-81915690D01*
X54424501Y-22445830D02*
X54424501Y-80831189D01*
X53340000Y-81915690D02*
X53340000Y-92075000D01*
G04 #@! TO.N,Net-(LED_1-Pad2)*
X40005000Y-70372500D02*
X40005000Y-31115000D01*
X41382500Y-71750000D02*
X40005000Y-70372500D01*
G04 #@! TO.N,Net-(R3-Pad2)*
X71120000Y-72390000D02*
X71120000Y-39370000D01*
G04 #@! TO.N,XTAL*
X101502500Y-104745000D02*
X100232500Y-106015000D01*
X100232500Y-106015000D02*
X100232500Y-109915000D01*
G04 #@! TO.N,CLK*
X94522500Y-41515000D02*
X97062500Y-44055000D01*
X99602500Y-69450000D02*
X100872500Y-70720000D01*
X99602500Y-55480000D02*
X99602500Y-69450000D01*
X97062500Y-44055000D02*
X97062500Y-52940000D01*
X93247500Y-99915000D02*
X91982500Y-101180000D01*
X95792500Y-40245000D02*
X94522500Y-41515000D01*
X124053491Y-32620000D02*
X97062500Y-32620000D01*
X95792500Y-33890000D02*
X95792500Y-40245000D01*
X97062500Y-52940000D02*
X99602500Y-55480000D01*
X90712500Y-107550000D02*
X90712500Y-102470000D01*
X55162500Y-97385000D02*
X54037500Y-98510000D01*
X91982500Y-101180000D02*
X91982500Y-125539840D01*
X100872500Y-70720000D02*
X100427500Y-71165000D01*
X45660833Y-81910000D02*
X45660833Y-95518333D01*
X100427500Y-97835000D02*
X99602500Y-98660000D01*
X125002500Y-33569009D02*
X124053491Y-32620000D01*
X100427500Y-71165000D02*
X100427500Y-97835000D01*
X125002500Y-36109009D02*
X125002500Y-33569009D01*
X54037500Y-98510000D02*
X54037500Y-106709020D01*
X54037500Y-106709020D02*
X54438000Y-107109520D01*
X130082500Y-69450000D02*
X130082500Y-41189009D01*
X97062500Y-32620000D02*
X95792500Y-33890000D01*
X45660833Y-95518333D02*
X46262500Y-96120000D01*
X91982500Y-125539840D02*
X90357840Y-127164500D01*
X90712500Y-102450000D02*
X90712500Y-102470000D01*
X128812500Y-70720000D02*
X130082500Y-69450000D01*
X130082500Y-41189009D02*
X125002500Y-36109009D01*
X93247500Y-99915000D02*
X90712500Y-102450000D01*
X89442500Y-108820000D02*
X90712500Y-107550000D01*
G04 #@! TO.N,Net-(D2-Pad1)*
X123732500Y-87722500D02*
X123732500Y-82150000D01*
X122555000Y-88900000D02*
X123732500Y-87722500D01*
G04 #@! TO.N,RESET\u002A*
X72390000Y-104140000D02*
X72390000Y-57785000D01*
X119922500Y-36430000D02*
X119922500Y-40240000D01*
X122144302Y-43098198D02*
X122144302Y-47541802D01*
X73025000Y-104775000D02*
X72390000Y-104140000D01*
X79692500Y-106680000D02*
X78007500Y-104995000D01*
X122144302Y-47541802D02*
X123732500Y-49130000D01*
X81280000Y-125095000D02*
X81280000Y-107315000D01*
X82550000Y-126365000D02*
X81280000Y-125095000D01*
X121192500Y-41510000D02*
X121192500Y-42146396D01*
X121192500Y-42146396D02*
X122144302Y-43098198D01*
X119922500Y-40240000D02*
X121192500Y-41510000D01*
X72390000Y-57785000D02*
X72390001Y-35822599D01*
X81280000Y-107315000D02*
X80645000Y-106680000D01*
X80645000Y-106680000D02*
X79692500Y-106680000D01*
G04 #@! TO.N,A15*
X90712500Y-71990000D02*
X90712500Y-77315402D01*
X91437000Y-78674212D02*
X91886501Y-79123713D01*
X91886501Y-79123713D02*
X91886501Y-87325999D01*
X91437000Y-78039902D02*
X91437000Y-78674212D01*
X91886501Y-87325999D02*
X90712500Y-88500000D01*
X90712500Y-77315402D02*
X91437000Y-78039902D01*
X55162500Y-87225000D02*
X55162500Y-89765000D01*
G04 #@! TO.N,A15\u002A*
X192312500Y-63775834D02*
X190781666Y-62245000D01*
X192312500Y-94850000D02*
X192312500Y-63775834D01*
X191042500Y-96120000D02*
X192312500Y-94850000D01*
X185962500Y-96120000D02*
X191042500Y-96120000D01*
X55162500Y-92305000D02*
X55162500Y-94845000D01*
G04 #@! TO.N,Net-(U1-Pad6)*
X156193884Y-77535982D02*
X156193884Y-78976384D01*
X157480000Y-62230000D02*
X156028000Y-63682000D01*
X161832500Y-84615000D02*
X161832500Y-99930000D01*
X156028000Y-77370098D02*
X156193884Y-77535982D01*
X161832500Y-99930000D02*
X160562500Y-101200000D01*
X156193884Y-78976384D02*
X161832500Y-84615000D01*
X156028000Y-63682000D02*
X156028000Y-77370098D01*
G04 #@! TO.N,Net-(U1-Pad8)*
X67310000Y-102870000D02*
X63187500Y-102870000D01*
X63907500Y-100390991D02*
X62782500Y-101515991D01*
X111032500Y-79256498D02*
X111032500Y-89156590D01*
X111948998Y-78340000D02*
X111032500Y-79256498D01*
X111032500Y-89156590D02*
X109929590Y-90259500D01*
X63907500Y-91175000D02*
X63907500Y-100390991D01*
X63187500Y-102870000D02*
X62782500Y-102465000D01*
X65312500Y-89770000D02*
X63907500Y-91175000D01*
X62782500Y-101515991D02*
X62782500Y-102465000D01*
G04 #@! TO.N,A14*
X94056509Y-81030000D02*
X93397500Y-81689009D01*
X158805000Y-58475000D02*
X158805000Y-76287500D01*
X140242500Y-43907500D02*
X142240000Y-41910000D01*
X140242500Y-55480000D02*
X140242500Y-43907500D01*
X95342999Y-80675492D02*
X94988491Y-81030000D01*
X93397500Y-95719500D02*
X95068000Y-97390000D01*
X108026509Y-75655000D02*
X109617500Y-75655000D01*
X94522500Y-74535000D02*
X93397500Y-75660000D01*
X95647500Y-79149009D02*
X95647500Y-80080991D01*
X93397500Y-77540991D02*
X94346509Y-78490000D01*
X94346509Y-78490000D02*
X94988491Y-78490000D01*
X95647500Y-80080991D02*
X95342999Y-80385492D01*
X157480000Y-57150000D02*
X158805000Y-58475000D01*
X93397500Y-81689009D02*
X93397500Y-95719500D01*
X158805000Y-76287500D02*
X158022500Y-77070000D01*
X94988491Y-78490000D02*
X95647500Y-79149009D01*
X93397500Y-75660000D02*
X93397500Y-77540991D01*
X94988491Y-81030000D02*
X94056509Y-81030000D01*
X109617500Y-75655000D02*
X111032500Y-77070000D01*
X107092997Y-74530000D02*
X107092997Y-74721488D01*
X107092997Y-74721488D02*
X108026509Y-75655000D01*
X95342999Y-80385492D02*
X95342999Y-80675492D01*
G04 #@! TO.N,A0*
X81822500Y-46590000D02*
X84362500Y-49130000D01*
X126272500Y-55480000D02*
X126272500Y-58020000D01*
X81822500Y-46590000D02*
X81822500Y-38970000D01*
X83092500Y-52940000D02*
X83092500Y-51670000D01*
X125452500Y-40690000D02*
X125452500Y-54660000D01*
X138972500Y-54210000D02*
X138972500Y-63100000D01*
X125002500Y-61700497D02*
X125132003Y-61830000D01*
X125452500Y-54660000D02*
X126272500Y-55480000D01*
X74202500Y-55517000D02*
X74239500Y-55480000D01*
X83092500Y-51670000D02*
X84362500Y-50400000D01*
X138972500Y-63100000D02*
X140642500Y-64770000D01*
X84362500Y-50400000D02*
X84362500Y-49130000D01*
X125002500Y-59290000D02*
X125002500Y-61700497D01*
X74202500Y-124060000D02*
X74202500Y-55517000D01*
X123732500Y-38970000D02*
X125452500Y-40690000D01*
X137702500Y-52940000D02*
X138972500Y-54210000D01*
X140642500Y-64770000D02*
X142240000Y-64770000D01*
X81822500Y-54210000D02*
X83092500Y-52940000D01*
X126272500Y-58020000D02*
X125002500Y-59290000D01*
G04 #@! TO.N,A1*
X127542500Y-44050000D02*
X126272500Y-45320000D01*
X74927000Y-127314500D02*
X78007500Y-130395000D01*
X78012500Y-43734009D02*
X78966509Y-42780000D01*
X78012500Y-55480000D02*
X78012500Y-43734009D01*
X75472500Y-58020000D02*
X75472500Y-97390000D01*
X126272500Y-45320000D02*
X126272500Y-54843604D01*
X127542500Y-42780000D02*
X127542500Y-44050000D01*
X126722500Y-55293604D02*
X126722500Y-58206396D01*
X79282500Y-56755000D02*
X78012500Y-55485000D01*
X126272500Y-58656396D02*
X126722500Y-58206396D01*
X74652001Y-123484903D02*
X74927000Y-123759902D01*
X78012500Y-55485000D02*
X78012500Y-55480000D01*
X75472500Y-97390000D02*
X74652001Y-98210499D01*
X74927000Y-123759902D02*
X74927000Y-127314500D01*
X126272500Y-58656396D02*
X126272500Y-60560000D01*
X126272500Y-41510000D02*
X127542500Y-42780000D01*
X74652001Y-98210499D02*
X74652001Y-123484903D01*
X126272500Y-54843604D02*
X126722500Y-55293604D01*
X78966509Y-42780000D02*
X80552500Y-42780000D01*
G04 #@! TO.N,A2*
X78012500Y-56750000D02*
X77562500Y-56300000D01*
X122462500Y-42780000D02*
X123732500Y-44050000D01*
X126722500Y-47410000D02*
X126722500Y-53390000D01*
X121192500Y-40240000D02*
X122462500Y-41510000D01*
X79282500Y-59295000D02*
X78012500Y-58025000D01*
X77562500Y-56300000D02*
X77562500Y-43230000D01*
X78966509Y-40240000D02*
X80552500Y-40240000D01*
X127542500Y-54210000D02*
X127542500Y-58020000D01*
X78012500Y-42780000D02*
X78012500Y-41194009D01*
X126722500Y-53390000D02*
X127542500Y-54210000D01*
X78012500Y-58020000D02*
X78012500Y-56750000D01*
X127542500Y-45320000D02*
X127542500Y-46590000D01*
X78012500Y-58025000D02*
X78012500Y-58020000D01*
X77562500Y-43230000D02*
X78012500Y-42780000D01*
X78012500Y-41194009D02*
X78966509Y-40240000D01*
X122462500Y-41510000D02*
X122462500Y-42780000D01*
X127542500Y-46590000D02*
X126722500Y-47410000D01*
G04 #@! TO.N,A3*
X79282500Y-61835000D02*
X78012500Y-60565000D01*
X76742500Y-56750000D02*
X76742500Y-46590000D01*
X123732500Y-46590000D02*
X125002500Y-47860000D01*
X77562500Y-57570000D02*
X76742500Y-56750000D01*
X78012500Y-59290000D02*
X77562500Y-58840000D01*
X125002500Y-47860000D02*
X125002500Y-55480000D01*
X77562500Y-58840000D02*
X77562500Y-57570000D01*
X78012500Y-60565000D02*
X78012500Y-59290000D01*
G04 #@! TO.N,A4*
X144052500Y-66910000D02*
X145322500Y-65640000D01*
X144052500Y-61830000D02*
X144052500Y-56422500D01*
X145322500Y-65640000D02*
X145322500Y-63100000D01*
X144052500Y-56422500D02*
X142240000Y-54610000D01*
X145322500Y-63100000D02*
X144052500Y-61830000D01*
G04 #@! TO.N,A5*
X118652500Y-36430000D02*
X118652500Y-35160000D01*
X121192500Y-54210000D02*
X121192500Y-42782792D01*
X141512500Y-32620000D02*
X143565000Y-34672500D01*
X120742500Y-41696396D02*
X119472500Y-40426396D01*
X83092500Y-65640000D02*
X83092500Y-64370000D01*
X143565000Y-34672500D02*
X143565000Y-50745000D01*
X81822500Y-66910000D02*
X83092500Y-65640000D01*
X119922500Y-33890000D02*
X121192500Y-33890000D01*
X119472500Y-37250000D02*
X118652500Y-36430000D01*
X118652500Y-35160000D02*
X119922500Y-33890000D01*
X119472500Y-40426396D02*
X119472500Y-37250000D01*
X143565000Y-50745000D02*
X142240000Y-52070000D01*
X83092500Y-64370000D02*
X81822500Y-63100000D01*
X120742500Y-42332792D02*
X120742500Y-41696396D01*
X119922500Y-55480000D02*
X121192500Y-54210000D01*
X121192500Y-42782792D02*
X120742500Y-42332792D01*
X81822500Y-63100000D02*
X81822500Y-56750000D01*
G04 #@! TO.N,A6*
X124053491Y-73260000D02*
X125132003Y-74338512D01*
X121192500Y-73260000D02*
X124053491Y-73260000D01*
X140242500Y-73260000D02*
X140242500Y-67549647D01*
X140242500Y-67549647D02*
X141977147Y-65815000D01*
X143602500Y-56754647D02*
X142502853Y-55655000D01*
X143602500Y-65165353D02*
X143602500Y-56754647D01*
X142502853Y-55655000D02*
X141527147Y-55655000D01*
X142952853Y-65815000D02*
X143602500Y-65165353D01*
X138972500Y-74530000D02*
X140242500Y-73260000D01*
X140692500Y-51077500D02*
X142240000Y-49530000D01*
X140692500Y-54820353D02*
X140692500Y-51077500D01*
X125132003Y-74338512D02*
X125132003Y-74530000D01*
X141527147Y-55655000D02*
X140692500Y-54820353D01*
X141977147Y-65815000D02*
X142952853Y-65815000D01*
G04 #@! TO.N,A7*
X80552500Y-70725000D02*
X79282500Y-71995000D01*
X80857500Y-50736396D02*
X80552500Y-51041396D01*
X81132000Y-48223234D02*
X80857500Y-48497734D01*
X80552500Y-51041396D02*
X80552500Y-70725000D01*
X80857500Y-48497734D02*
X80857500Y-50736396D01*
G04 #@! TO.N,A8*
X80407500Y-71506396D02*
X81002500Y-70911396D01*
X79282500Y-74535000D02*
X80407500Y-73410000D01*
X81002500Y-52120000D02*
X82722500Y-50400000D01*
X81002500Y-70911396D02*
X81002500Y-52120000D01*
X80407500Y-73410000D02*
X80407500Y-71506396D01*
X82722500Y-50400000D02*
X83092500Y-50400000D01*
G04 #@! TO.N,A9*
X156155000Y-53115000D02*
X157200000Y-52070000D01*
X156207000Y-55094853D02*
X156155000Y-55042853D01*
X156207000Y-55780098D02*
X156207000Y-55094853D01*
X155128998Y-56858100D02*
X156207000Y-55780098D01*
X155255998Y-79101676D02*
X155294882Y-79062792D01*
X154212500Y-82150000D02*
X155255998Y-81106502D01*
X155255998Y-77869476D02*
X155128998Y-77742476D01*
X155294882Y-79062792D02*
X155294882Y-78090218D01*
X155128998Y-77742476D02*
X155128998Y-56858100D01*
X81822500Y-83420000D02*
X80552500Y-82150000D01*
X80547500Y-78340000D02*
X79282500Y-77075000D01*
X157200000Y-52070000D02*
X157480000Y-52070000D01*
X80552500Y-78340000D02*
X80547500Y-78340000D01*
X155255998Y-81106502D02*
X155255998Y-79101676D01*
X155294882Y-78090218D02*
X155255998Y-78051334D01*
X156155000Y-55042853D02*
X156155000Y-53115000D01*
X155255998Y-78051334D02*
X155255998Y-77869476D01*
X80552500Y-82150000D02*
X80552500Y-78340000D01*
G04 #@! TO.N,A10*
X155578499Y-61591501D02*
X157480000Y-59690000D01*
X155744383Y-81888117D02*
X155744383Y-77904029D01*
X83092500Y-80880000D02*
X83092500Y-83420000D01*
X81822500Y-79610000D02*
X83092500Y-80880000D01*
X155705499Y-77683287D02*
X155578499Y-77556287D01*
X154212500Y-83420000D02*
X155744383Y-81888117D01*
X83092500Y-83420000D02*
X84362500Y-84690000D01*
X155744383Y-77904029D02*
X155705499Y-77865145D01*
X155578499Y-77556287D02*
X155578499Y-61591501D01*
X155705499Y-77865145D02*
X155705499Y-77683287D01*
G04 #@! TO.N,A11*
X151672500Y-83420000D02*
X154758000Y-80334500D01*
X154845381Y-78276407D02*
X154758000Y-78189026D01*
X154758000Y-78189026D02*
X154758000Y-78007168D01*
X151672500Y-84690000D02*
X151672500Y-83420000D01*
X154845381Y-78876603D02*
X154845381Y-78276407D01*
X154679497Y-56283003D02*
X155482500Y-55480000D01*
X154758000Y-78007168D02*
X154679497Y-77928665D01*
X154758000Y-78963984D02*
X154845381Y-78876603D01*
X154679497Y-77928665D02*
X154679497Y-56283003D01*
X154758000Y-80334500D02*
X154758000Y-78963984D01*
G04 #@! TO.N,A12*
X94522500Y-79615000D02*
X93257500Y-79615000D01*
X92802500Y-60834500D02*
X92528000Y-60560000D01*
X118652500Y-46590000D02*
X118652500Y-56750000D01*
X91982500Y-98660000D02*
X91982500Y-87865690D01*
X91886501Y-77853713D02*
X91532500Y-77499712D01*
X91982500Y-87865690D02*
X92336002Y-87512188D01*
X93257500Y-79615000D02*
X91886501Y-78244001D01*
X91532500Y-77499712D02*
X91532500Y-68628620D01*
X92802500Y-67358620D02*
X92802500Y-60834500D01*
X119922500Y-45320000D02*
X118652500Y-46590000D01*
X92336002Y-87512188D02*
X92336002Y-81801498D01*
X91886501Y-78244001D02*
X91886501Y-77853713D01*
X90712500Y-99930000D02*
X91982500Y-98660000D01*
X91532500Y-68628620D02*
X92802500Y-67358620D01*
X92336002Y-81801498D02*
X94522500Y-79615000D01*
G04 #@! TO.N,A13*
X161832500Y-47860000D02*
X160962500Y-46990000D01*
X159529500Y-74205500D02*
X159854000Y-74530000D01*
X160962500Y-46990000D02*
X157480000Y-46990000D01*
X160562500Y-74530000D02*
X161832500Y-73260000D01*
X161832500Y-73260000D02*
X161832500Y-47860000D01*
X159854000Y-74530000D02*
X160562500Y-74530000D01*
G04 #@! TO.N,D7*
X123732500Y-69450000D02*
X125307001Y-71024501D01*
X95792500Y-70725000D02*
X95792500Y-78658319D01*
X125307001Y-72294501D02*
X130082500Y-77070000D01*
X95792500Y-78658319D02*
X96097001Y-78962820D01*
X151672500Y-78340000D02*
X151672500Y-65640000D01*
X95792500Y-102450000D02*
X93247500Y-104995000D01*
X107077500Y-70575000D02*
X108958491Y-70575000D01*
X109892003Y-69641488D02*
X109892003Y-69450000D01*
X96097001Y-78962820D02*
X96097001Y-80267180D01*
X95792500Y-80571681D02*
X95792500Y-102450000D01*
X94522500Y-69455000D02*
X95792500Y-70725000D01*
X96097001Y-80267180D02*
X95792500Y-80571681D01*
X108958491Y-70575000D02*
X109892003Y-69641488D01*
X105952500Y-69450000D02*
X107077500Y-70575000D01*
X125307001Y-71024501D02*
X125307001Y-72294501D01*
X151672500Y-65640000D02*
X152307500Y-65005000D01*
G04 #@! TO.N,D6*
X152942500Y-77070000D02*
X152942500Y-66910000D01*
X96546502Y-80453369D02*
X96242001Y-80757870D01*
X96546502Y-78776631D02*
X96546502Y-80453369D01*
X94522500Y-66915000D02*
X96242001Y-68634501D01*
X96242001Y-104540499D02*
X93247500Y-107535000D01*
X138972500Y-68180000D02*
X138972500Y-73260000D01*
X137702500Y-74530000D02*
X137702500Y-75800000D01*
X102142500Y-68180000D02*
X102142500Y-87230000D01*
X96242001Y-80757870D02*
X96242001Y-104540499D01*
X100872500Y-66910000D02*
X102142500Y-68180000D01*
X137702500Y-85960000D02*
X137702500Y-75800000D01*
X96242001Y-68634501D02*
X96242001Y-78472130D01*
X136432500Y-87230000D02*
X137702500Y-85960000D01*
X138972500Y-73260000D02*
X137702500Y-74530000D01*
X137702500Y-66910000D02*
X138972500Y-68180000D01*
X96242001Y-78472130D02*
X96546502Y-78776631D01*
G04 #@! TO.N,D5*
X107077500Y-65495000D02*
X109907500Y-65495000D01*
X96996003Y-78590442D02*
X96996003Y-80639558D01*
X96242001Y-67043510D02*
X96242001Y-67358121D01*
X94522500Y-65324009D02*
X96242001Y-67043510D01*
X96242001Y-67358121D02*
X96691502Y-67807622D01*
X96996003Y-80639558D02*
X96691502Y-80944059D01*
X123732500Y-64370000D02*
X125132003Y-65769503D01*
X96691502Y-106630998D02*
X93247500Y-110075000D01*
X94522500Y-64375000D02*
X94522500Y-65324009D01*
X105952500Y-64370000D02*
X107077500Y-65495000D01*
X96691502Y-67807622D02*
X96691502Y-78285941D01*
X125132003Y-65769503D02*
X125132003Y-69450000D01*
X96691502Y-80944059D02*
X96691502Y-106630998D01*
X96691502Y-78285941D02*
X96996003Y-78590442D01*
X109907500Y-65495000D02*
X111032500Y-64370000D01*
G04 #@! TO.N,D4*
X97445504Y-80825747D02*
X97141003Y-81130248D01*
X123732500Y-61830000D02*
X126272500Y-64370000D01*
X95792500Y-63105000D02*
X95792500Y-65958319D01*
X97445504Y-78404253D02*
X97445504Y-80825747D01*
X95792500Y-65958319D02*
X97141003Y-67306822D01*
X94522500Y-61835000D02*
X95792500Y-63105000D01*
X97141003Y-81130248D02*
X97141003Y-108721497D01*
X126272500Y-64370000D02*
X126272500Y-71990000D01*
X97141003Y-108721497D02*
X93247500Y-112615000D01*
X97141003Y-67306822D02*
X97141003Y-78099752D01*
X97141003Y-78099752D02*
X97445504Y-78404253D01*
G04 #@! TO.N,D3*
X156752500Y-77070000D02*
X156752500Y-75657500D01*
X90712500Y-70720000D02*
X89442500Y-71990000D01*
X89442500Y-71990000D02*
X89442500Y-85960000D01*
X129448190Y-75800000D02*
X131352500Y-75800000D01*
X88079501Y-114895001D02*
X88354500Y-115170000D01*
X127542500Y-73894310D02*
X129448190Y-75800000D01*
X88172500Y-87230000D02*
X88172500Y-96120000D01*
X88079501Y-96212999D02*
X88079501Y-114895001D01*
X131352500Y-75800000D02*
X132622500Y-77070000D01*
X88172500Y-96120000D02*
X88079501Y-96212999D01*
X89442500Y-85960000D02*
X88172500Y-87230000D01*
X156752500Y-75657500D02*
X157480000Y-74930000D01*
X90712500Y-64370000D02*
X90712500Y-70720000D01*
X127542500Y-60560000D02*
X127542500Y-73894310D01*
G04 #@! TO.N,D2*
X103412500Y-56750000D02*
X104682500Y-55480000D01*
X98332500Y-109455690D02*
X98332500Y-112610000D01*
X98782001Y-109006189D02*
X98332500Y-109455690D01*
X121192500Y-70720000D02*
X120742500Y-70270000D01*
X118652500Y-58020000D02*
X119922500Y-58020000D01*
X98782001Y-72439501D02*
X98782001Y-97820211D01*
X98332500Y-112610000D02*
X93247500Y-117695000D01*
X121192500Y-71990000D02*
X121192500Y-70720000D01*
X120742500Y-70270000D02*
X120742500Y-60110000D01*
X97062500Y-56750000D02*
X98040005Y-57727505D01*
X98428499Y-99146287D02*
X98782001Y-99499789D01*
X98040005Y-57727505D02*
X98040005Y-71697505D01*
X98428499Y-98173713D02*
X98428499Y-99146287D01*
X98040005Y-71697505D02*
X98782001Y-72439501D01*
X120742500Y-60110000D02*
X119922500Y-59290000D01*
X116112500Y-55480000D02*
X118652500Y-58020000D01*
X119922500Y-59290000D02*
X119922500Y-58020000D01*
X98782001Y-99499789D02*
X98782001Y-109006189D01*
X104682500Y-55480000D02*
X116112500Y-55480000D01*
X98782001Y-97820211D02*
X98428499Y-98173713D01*
G04 #@! TO.N,D1*
X97062500Y-54210000D02*
X98489506Y-55637006D01*
X99302402Y-97935500D02*
X98878000Y-98359902D01*
X99602500Y-99684598D02*
X99602500Y-108821380D01*
X121192500Y-55480000D02*
X121192500Y-69525590D01*
X121192500Y-69525590D02*
X122386909Y-70719999D01*
X99602500Y-70720000D02*
X99302402Y-71020098D01*
X98489506Y-55637006D02*
X98489506Y-69607006D01*
X98782001Y-114700499D02*
X93247500Y-120235000D01*
X99302402Y-71020098D02*
X99302402Y-97935500D01*
X98878000Y-98359902D02*
X98878000Y-98960098D01*
X98782001Y-109641879D02*
X98782001Y-114700499D01*
X99602500Y-108821380D02*
X98782001Y-109641879D01*
X98878000Y-98960098D02*
X99602500Y-99684598D01*
X98489506Y-69607006D02*
X99602500Y-70720000D01*
G04 #@! TO.N,D0*
X122332997Y-66910000D02*
X122332997Y-53069503D01*
X90712500Y-54210000D02*
X91803000Y-55300500D01*
X91982500Y-51670000D02*
X90712500Y-52940000D01*
X91982500Y-61830000D02*
X91982500Y-66910000D01*
X87630000Y-57292500D02*
X90712500Y-54210000D01*
X88265000Y-122555000D02*
X87630000Y-121920000D01*
X87630000Y-121920000D02*
X87630000Y-57292500D01*
X91803000Y-61650500D02*
X91982500Y-61830000D01*
X91803000Y-55300500D02*
X91803000Y-61650500D01*
X90712500Y-52940000D02*
X90712500Y-54210000D01*
X122332997Y-53069503D02*
X123732500Y-51670000D01*
G04 #@! TO.N,RW\u002A*
X91982500Y-77150589D02*
X93212205Y-78380294D01*
X153762500Y-56750000D02*
X153762500Y-57570000D01*
X93252500Y-67544310D02*
X92802999Y-67993811D01*
X91982500Y-75800000D02*
X91982500Y-77150589D01*
X93252500Y-74530000D02*
X91982500Y-75800000D01*
X92802999Y-67993811D02*
X92802999Y-68366189D01*
X94522500Y-49135000D02*
X93252500Y-50405000D01*
X92802999Y-68366189D02*
X93252500Y-68815690D01*
X90712500Y-79610000D02*
X90712500Y-85325690D01*
X154212500Y-58020000D02*
X154212500Y-78484886D01*
X157480000Y-44450000D02*
X157200000Y-44450000D01*
X90712500Y-85325690D02*
X88622001Y-87416189D01*
X93252500Y-50405000D02*
X93252500Y-67544310D01*
X88622001Y-87416189D02*
X88622001Y-97192999D01*
X93252500Y-68815690D02*
X93252500Y-74530000D01*
X153762500Y-57570000D02*
X154212500Y-58020000D01*
X157200000Y-44450000D02*
X153487500Y-48162500D01*
X88622001Y-97192999D02*
X88804001Y-97374999D01*
X153487500Y-48162500D02*
X153487500Y-56475000D01*
X153487500Y-56475000D02*
X153762500Y-56750000D01*
X154212500Y-78484886D02*
X154120881Y-78576505D01*
G04 #@! TO.N,Net-(D3-Pad2)*
X56032110Y-42307512D02*
X58089501Y-44364903D01*
X58089501Y-53644501D02*
X60325000Y-55880000D01*
X58089501Y-44364903D02*
X58089501Y-53644501D01*
X56032110Y-31710000D02*
X56032110Y-42307512D01*
X57257110Y-30485000D02*
X56032110Y-31710000D01*
G04 #@! TO.N,Net-(U7-Pad10)*
X147612500Y-98542500D02*
X147612500Y-93330000D01*
X108492500Y-56750000D02*
X119357036Y-67614536D01*
X147612500Y-93330000D02*
X146592500Y-92310000D01*
X119357036Y-67614536D02*
X119357036Y-90259500D01*
G04 #@! TO.N,Net-(U7-Pad11)*
X116112500Y-65778630D02*
X116112500Y-91040000D01*
X150152500Y-95870000D02*
X149132500Y-94850000D01*
X150152500Y-98542500D02*
X150152500Y-95870000D01*
X108492500Y-59290000D02*
X109623870Y-59290000D01*
X109623870Y-59290000D02*
X116112500Y-65778630D01*
G04 #@! TO.N,Net-(U7-Pad12)*
X152692500Y-98542500D02*
X152692500Y-97140000D01*
X108492500Y-61830000D02*
X111032500Y-61830000D01*
X152692500Y-97140000D02*
X151037500Y-95485000D01*
X114842500Y-65640000D02*
X114842500Y-92310000D01*
X111032500Y-61830000D02*
X114842500Y-65640000D01*
G04 #@! TO.N,Net-(U7-Pad13)*
X155232500Y-98542500D02*
X155232500Y-97140000D01*
X155232500Y-97140000D02*
X154212500Y-96120000D01*
X113572500Y-92310000D02*
X114842500Y-93580000D01*
X113572500Y-65640000D02*
X113572500Y-92310000D01*
X111032500Y-63100000D02*
X113572500Y-65640000D01*
G04 #@! TO.N,Net-(U7-Pad14)*
X129832500Y-101450000D02*
X128812500Y-102470000D01*
X107222500Y-66910000D02*
X104682500Y-69450000D01*
X104682500Y-101200000D02*
X105952500Y-102470000D01*
X104682500Y-69450000D02*
X104682500Y-101200000D01*
X108492500Y-66910000D02*
X107222500Y-66910000D01*
X129832500Y-98542500D02*
X129832500Y-101450000D01*
G04 #@! TO.N,Net-(U7-Pad15)*
X113122999Y-71540499D02*
X113122999Y-93004903D01*
X132372500Y-102720000D02*
X132372500Y-98542500D01*
X112848000Y-93279902D02*
X112848000Y-101745500D01*
X108492500Y-69450000D02*
X109292499Y-68650001D01*
X131352500Y-103740000D02*
X132372500Y-102720000D01*
X113122999Y-93004903D02*
X112848000Y-93279902D01*
X110232501Y-68650001D02*
X113122999Y-71540499D01*
X109292499Y-68650001D02*
X110232501Y-68650001D01*
X112848000Y-101745500D02*
X114842500Y-103740000D01*
G04 #@! TO.N,Net-(U7-Pad16)*
X112398499Y-93093713D02*
X112398499Y-102565999D01*
X112398499Y-102565999D02*
X114842500Y-105010000D01*
X114842500Y-105010000D02*
X116112500Y-105010000D01*
X134912500Y-102720000D02*
X134912500Y-98542500D01*
X112673498Y-76170998D02*
X112673498Y-92818714D01*
X112673498Y-92818714D02*
X112398499Y-93093713D01*
X132622500Y-105010000D02*
X134912500Y-102720000D01*
X108492500Y-71990000D02*
X112673498Y-76170998D01*
G04 #@! TO.N,Net-(R1-Pad1)*
X45212000Y-38100000D02*
X45212000Y-51308000D01*
G04 #@! TO.N,Net-(R6-Pad1)*
X57640000Y-57005000D02*
X56515000Y-55880000D01*
X60790991Y-57005000D02*
X57640000Y-57005000D01*
X61450000Y-43162000D02*
X61450000Y-56345991D01*
X60960000Y-42672000D02*
X61450000Y-43162000D01*
X61450000Y-56345991D02*
X60790991Y-57005000D01*
G04 #@! TO.N,MAX232_12*
X76292500Y-123600000D02*
X78007500Y-125315000D01*
X76292500Y-99480000D02*
X76292500Y-123600000D01*
X75472500Y-98660000D02*
X76292500Y-99480000D01*
G04 #@! TO.N,Net-(R7-Pad1)*
X41377500Y-48890000D02*
X41377500Y-51430000D01*
G04 #@! TO.N,Net-(U4-Pad10)*
X80521451Y-117721049D02*
X80521451Y-107581049D01*
X78007500Y-120235000D02*
X80521451Y-117721049D01*
G04 #@! TD*
M02*
